<svg width="520" height="520" viewBox="0 0 520 520" fill="none" xmlns="http://www.w3.org/2000/svg">
  <rect width="520" height="520" rx="24" fill="#F7F4F3" />
  <path
    d="M195.118 150.768C194.78 150.768 194.483 150.673 194.225 150.482C193.931 150.261 193.784 149.989 193.784 149.666C193.446 148.776 193.233 148.052 193.145 147.494C193.057 146.935 192.766 145.351 192.274 142.742C191.899 140.764 191.649 139.177 191.524 137.979C190.87 140.404 190.168 142.459 189.418 144.142C188.551 146.09 187.988 147.615 187.731 148.718C187.819 148.887 187.863 149.052 187.863 149.214C187.863 149.545 187.716 149.817 187.422 150.03C187.158 150.228 186.856 150.327 186.518 150.327C185.526 150.327 185.03 149.883 185.03 148.993L184.688 147.593L183.486 142.19C183.008 140.367 182.193 137.754 181.038 134.351C180.987 134.189 180.961 134.042 180.961 133.91C180.961 133.226 181.347 132.885 182.119 132.885C182.597 132.885 182.964 133.146 183.222 133.667C183.354 133.932 183.622 134.693 184.026 135.95C184.46 137.28 184.894 138.883 185.327 140.757L186.397 145.63C187.183 143.808 187.966 141.588 188.745 138.971C189.223 137.376 189.587 136.27 189.837 135.652C190.499 134.028 191.142 133.215 191.767 133.215C192.281 133.215 192.645 133.476 192.858 133.998C193.123 134.63 193.391 136.137 193.663 138.519C193.81 139.724 194.06 141.172 194.413 142.863L195.361 147.196C196.346 144.829 197.577 141.628 199.055 137.593C199.135 137.372 199.319 136.678 199.606 135.509C199.819 134.649 200.08 133.98 200.389 133.502C200.653 133.098 200.999 132.896 201.425 132.896C202.167 132.896 202.539 133.263 202.539 133.998C202.539 134.123 202.421 134.491 202.186 135.101L201.745 136.292L201.138 138.254L197.864 146.215C197.562 147.09 197.044 148.361 196.309 150.03C196.045 150.522 195.648 150.768 195.118 150.768ZM213.675 150.394C213.153 150.394 212.811 150.114 212.649 149.556C212.48 148.953 212.326 148.097 212.186 146.987C212.054 145.921 211.988 145.046 211.988 144.362C211.988 144.171 211.995 143.881 212.01 143.491C212.032 143.102 212.043 142.812 212.043 142.62C212.043 141.239 211.697 140.548 211.006 140.548C210.073 140.548 209.239 140.97 208.504 141.816C208.129 142.249 207.614 143.076 206.96 144.296C206.96 147.097 206.842 148.754 206.607 149.269C206.401 149.725 206.082 149.953 205.648 149.953C205.347 149.953 205.082 149.85 204.854 149.644C204.626 149.438 204.512 149.188 204.512 148.894C204.512 148.791 204.545 148.629 204.612 148.409C204.67 148.225 204.711 147.689 204.733 146.799L204.766 145.167L204.799 137.063C204.85 136.152 204.876 135.538 204.876 135.222C204.876 134.847 204.839 134.494 204.766 134.164C204.7 133.826 204.667 133.476 204.667 133.116C204.667 132.807 204.773 132.554 204.986 132.355C205.2 132.15 205.461 132.047 205.769 132.047C206.372 132.047 206.725 132.37 206.828 133.017C206.945 133.73 207.004 134.373 207.004 134.946C207.004 135.718 206.978 136.523 206.927 137.361C206.883 138.162 206.864 138.967 206.872 139.776L206.883 140.746C207.486 139.937 208.129 139.335 208.812 138.938C209.503 138.534 210.235 138.331 211.006 138.331C212.227 138.331 213.065 138.728 213.52 139.522C213.844 140.081 214.028 141.022 214.072 142.345L214.16 144.451L214.38 146.744C214.483 147.604 214.608 148.361 214.755 149.015C214.785 149.14 214.799 149.247 214.799 149.335C214.799 149.636 214.689 149.886 214.469 150.085C214.248 150.291 213.983 150.394 213.675 150.394ZM226.112 150.438C225.972 150.438 225.719 150.276 225.351 149.953C225.02 149.651 224.774 149.383 224.612 149.148C223.907 149.53 223.285 149.817 222.749 150.008C222.212 150.206 221.764 150.305 221.404 150.305C219.684 150.305 218.43 149.82 217.644 148.85C216.902 147.938 216.53 146.542 216.53 144.66C216.53 142.881 217.14 141.36 218.361 140.096C219.588 138.831 221.051 138.199 222.749 138.199C223.388 138.199 224.105 138.364 224.899 138.695C225.899 139.107 226.398 139.603 226.398 140.184C226.398 140.382 226.325 140.559 226.178 140.713C226.104 140.992 226.046 141.452 226.002 142.091C225.965 142.731 225.943 143.55 225.935 144.55C225.928 145.461 225.99 146.182 226.123 146.711C226.196 147.034 226.428 147.681 226.817 148.651C226.869 148.784 226.953 148.979 227.071 149.236L227.137 149.423C227.137 149.717 227.034 149.96 226.828 150.151C226.623 150.342 226.384 150.438 226.112 150.438ZM223.818 142.775C223.818 142.459 223.837 142.117 223.874 141.749C223.918 141.374 223.98 140.978 224.061 140.559C223.789 140.419 223.554 140.316 223.355 140.25C223.164 140.184 223.01 140.151 222.892 140.151C221.753 140.151 220.768 140.617 219.937 141.551C219.114 142.477 218.702 143.547 218.702 144.759C218.702 145.965 218.916 146.869 219.342 147.472C219.768 148.074 220.408 148.376 221.26 148.376C221.966 148.376 222.565 148.247 223.058 147.99C223.322 147.85 223.693 147.571 224.171 147.152C223.936 145.204 223.818 143.745 223.818 142.775ZM236.432 140.316C236.278 140.316 236.094 140.309 235.881 140.294C235.675 140.279 235.495 140.272 235.34 140.272C235.171 140.272 234.671 140.327 233.841 140.437L234.05 146.954L234.061 147.439L234.072 148.001C234.102 149.611 233.716 150.416 232.915 150.416C232.621 150.416 232.363 150.32 232.143 150.129C231.93 149.938 231.823 149.699 231.823 149.412C231.823 149.133 231.834 148.714 231.856 148.155C231.878 147.597 231.889 147.178 231.889 146.898L231.669 140.459C231.132 140.437 230.316 140.375 229.221 140.272C228.567 140.184 228.24 139.82 228.24 139.18C228.24 138.857 228.339 138.589 228.537 138.375C228.736 138.162 228.989 138.056 229.298 138.056L231.614 138.243C231.614 137.868 231.595 137.368 231.558 136.744C231.529 136.112 231.514 135.656 231.514 135.376C231.514 135.068 231.621 134.814 231.834 134.616C232.047 134.41 232.308 134.307 232.617 134.307C233.279 134.307 233.664 134.847 233.775 135.928C233.797 136.2 233.808 136.527 233.808 136.909L233.786 137.549L233.775 138.232C234.686 138.115 235.208 138.056 235.34 138.056C236.105 138.056 236.605 138.092 236.84 138.166C237.288 138.313 237.512 138.658 237.512 139.202C237.512 139.526 237.409 139.794 237.204 140.007C237.005 140.213 236.748 140.316 236.432 140.316ZM256.069 139.875L252.254 148.122C251.313 150.129 250.593 151.809 250.093 153.161L249.365 155.3C249.174 155.829 248.843 156.094 248.373 156.094C248.064 156.094 247.796 155.991 247.568 155.785C247.347 155.587 247.237 155.337 247.237 155.035C247.237 154.3 248.031 152.172 249.619 148.651L245.671 141.055L245.175 140.25C244.977 139.912 244.878 139.629 244.878 139.401C244.878 139.1 244.992 138.835 245.219 138.607C245.455 138.379 245.716 138.265 246.002 138.265C246.34 138.265 246.601 138.394 246.785 138.651C248.035 140.386 249.376 142.856 250.809 146.06L252.441 142.257C253.029 140.941 253.595 139.809 254.139 138.861C254.374 138.449 254.683 138.243 255.065 138.243C255.367 138.243 255.631 138.35 255.859 138.563C256.094 138.776 256.212 139.03 256.212 139.324C256.212 139.485 256.164 139.669 256.069 139.875ZM262.342 150.36C261.108 150.36 260.045 149.905 259.156 148.993C258.164 147.979 257.642 146.615 257.59 144.903C257.546 143.242 257.965 141.779 258.847 140.514C259.876 139.022 261.31 138.276 263.147 138.276C264.617 138.276 265.731 138.949 266.488 140.294C267.091 141.382 267.381 142.69 267.359 144.219C267.337 145.851 266.911 147.244 266.08 148.398C265.139 149.706 263.893 150.36 262.342 150.36ZM263.004 140.514C261.923 140.507 261.082 141.022 260.479 142.058C260.001 142.889 259.762 143.837 259.762 144.903C259.762 145.969 260.053 146.799 260.633 147.395C261.119 147.887 261.688 148.133 262.342 148.133C263.107 148.133 263.765 147.854 264.316 147.295C264.941 146.678 265.272 145.844 265.308 144.792C265.411 141.948 264.643 140.522 263.004 140.514ZM279.091 143.271C279.091 143.8 279.094 144.594 279.102 145.652C279.109 146.711 279.113 147.505 279.113 148.034C279.113 148.196 279.124 148.442 279.146 148.773C279.175 149.104 279.19 149.35 279.19 149.511C279.19 149.828 279.083 150.085 278.87 150.283C278.657 150.489 278.396 150.592 278.087 150.592C277.521 150.592 277.161 150.243 277.007 149.545C276.088 150.022 275.029 150.261 273.831 150.261C272.868 150.261 272.071 150.048 271.439 149.622C270.74 149.151 270.325 148.464 270.193 147.56C269.906 145.612 269.763 143.877 269.763 142.356C269.763 141.349 269.873 140.202 270.094 138.916C270.196 138.276 270.546 137.957 271.141 137.957C271.457 137.957 271.722 138.059 271.935 138.265C272.148 138.464 272.255 138.721 272.255 139.037C272.255 139.375 272.199 139.915 272.089 140.658C271.986 141.4 271.935 141.966 271.935 142.356C271.935 143.583 271.975 144.634 272.056 145.509C272.137 146.384 272.258 147.086 272.42 147.615C272.663 147.747 272.901 147.85 273.137 147.924C273.372 147.99 273.603 148.023 273.831 148.023C274.816 148.023 275.856 147.865 276.952 147.549L276.941 145.311L276.918 143.172C276.918 141.584 276.988 140.206 277.128 139.037C277.209 138.361 277.565 138.023 278.197 138.023C278.514 138.023 278.778 138.126 278.991 138.331C279.204 138.537 279.304 138.794 279.289 139.103L279.091 143.271ZM295.971 140.316C295.817 140.316 295.633 140.309 295.42 140.294C295.214 140.279 295.034 140.272 294.879 140.272C294.71 140.272 294.211 140.327 293.38 140.437L293.589 146.954L293.6 147.439L293.611 148.001C293.641 149.611 293.255 150.416 292.454 150.416C292.16 150.416 291.902 150.32 291.682 150.129C291.469 149.938 291.362 149.699 291.362 149.412C291.362 149.133 291.373 148.714 291.395 148.155C291.417 147.597 291.428 147.178 291.428 146.898L291.208 140.459C290.671 140.437 289.855 140.375 288.76 140.272C288.106 140.184 287.779 139.82 287.779 139.18C287.779 138.857 287.878 138.589 288.077 138.375C288.275 138.162 288.529 138.056 288.837 138.056L291.153 138.243C291.153 137.868 291.134 137.368 291.098 136.744C291.068 136.112 291.053 135.656 291.053 135.376C291.053 135.068 291.16 134.814 291.373 134.616C291.586 134.41 291.847 134.307 292.156 134.307C292.818 134.307 293.203 134.847 293.314 135.928C293.336 136.2 293.347 136.527 293.347 136.909L293.325 137.549L293.314 138.232C294.225 138.115 294.747 138.056 294.879 138.056C295.644 138.056 296.144 138.092 296.379 138.166C296.827 138.313 297.051 138.658 297.051 139.202C297.051 139.526 296.949 139.794 296.743 140.007C296.544 140.213 296.287 140.316 295.971 140.316ZM308.474 150.394C307.952 150.394 307.61 150.114 307.449 149.556C307.28 148.953 307.125 148.097 306.986 146.987C306.853 145.921 306.787 145.046 306.787 144.362C306.787 144.171 306.795 143.881 306.809 143.491C306.831 143.102 306.842 142.812 306.842 142.62C306.842 141.239 306.497 140.548 305.806 140.548C304.872 140.548 304.038 140.97 303.303 141.816C302.928 142.249 302.414 143.076 301.759 144.296C301.759 147.097 301.642 148.754 301.407 149.269C301.201 149.725 300.881 149.953 300.447 149.953C300.146 149.953 299.881 149.85 299.654 149.644C299.426 149.438 299.312 149.188 299.312 148.894C299.312 148.791 299.345 148.629 299.411 148.409C299.47 148.225 299.51 147.689 299.532 146.799L299.565 145.167L299.598 137.063C299.65 136.152 299.676 135.538 299.676 135.222C299.676 134.847 299.639 134.494 299.565 134.164C299.499 133.826 299.466 133.476 299.466 133.116C299.466 132.807 299.573 132.554 299.786 132.355C299.999 132.15 300.26 132.047 300.569 132.047C301.171 132.047 301.524 132.37 301.627 133.017C301.745 133.73 301.804 134.373 301.804 134.946C301.804 135.718 301.778 136.523 301.726 137.361C301.682 138.162 301.664 138.967 301.671 139.776L301.682 140.746C302.285 139.937 302.928 139.335 303.612 138.938C304.303 138.534 305.034 138.331 305.806 138.331C307.026 138.331 307.864 138.728 308.32 139.522C308.643 140.081 308.827 141.022 308.871 142.345L308.959 144.451L309.18 146.744C309.283 147.604 309.408 148.361 309.555 149.015C309.584 149.14 309.599 149.247 309.599 149.335C309.599 149.636 309.489 149.886 309.268 150.085C309.048 150.291 308.783 150.394 308.474 150.394ZM314.406 135.751C314.053 135.751 313.748 135.626 313.491 135.376C313.234 135.127 313.105 134.825 313.105 134.472C313.105 134.12 313.234 133.818 313.491 133.568C313.748 133.318 314.053 133.193 314.406 133.193C314.759 133.193 315.06 133.318 315.31 133.568C315.567 133.818 315.696 134.12 315.696 134.472C315.696 134.825 315.567 135.127 315.31 135.376C315.06 135.626 314.759 135.751 314.406 135.751ZM314.902 144.704C314.902 145.145 314.913 145.807 314.935 146.689C314.965 147.564 314.979 148.221 314.979 148.663C314.979 148.986 314.88 149.251 314.682 149.456C314.483 149.662 314.222 149.765 313.899 149.765C313.583 149.765 313.322 149.662 313.116 149.456C312.918 149.251 312.818 148.986 312.818 148.663C312.818 148.221 312.804 147.564 312.774 146.689C312.752 145.807 312.741 145.145 312.741 144.704C312.741 144.013 312.778 143.153 312.851 142.124C312.925 141.088 312.962 140.224 312.962 139.533C312.962 139.202 313.061 138.934 313.259 138.728C313.465 138.522 313.726 138.42 314.042 138.42C314.358 138.42 314.616 138.522 314.814 138.728C315.02 138.934 315.123 139.202 315.123 139.533C315.123 140.224 315.086 141.088 315.012 142.124C314.939 143.153 314.902 144.013 314.902 144.704ZM327.086 150.493C326.454 150.493 326.097 150.147 326.016 149.456L325.707 147.042C325.605 146.182 325.553 145.377 325.553 144.627C325.553 144.421 325.564 144.072 325.586 143.58C325.616 143.087 325.63 142.738 325.63 142.532C325.63 140.944 325.336 140.151 324.748 140.151C323.925 140.151 323.138 140.639 322.389 141.617C321.712 142.506 321.183 143.631 320.801 144.991C320.786 145.278 320.753 145.638 320.702 146.071C320.658 146.439 320.636 146.795 320.636 147.141C320.636 147.361 320.658 147.692 320.702 148.133C320.746 148.574 320.768 148.905 320.768 149.126C320.768 149.456 320.665 149.725 320.459 149.93C320.261 150.136 320.003 150.239 319.687 150.239C319.364 150.239 319.103 150.136 318.905 149.93C318.706 149.725 318.607 149.456 318.607 149.126C318.607 148.905 318.581 148.574 318.53 148.133C318.486 147.692 318.464 147.361 318.464 147.141C318.464 146.384 318.515 145.336 318.618 143.999C318.728 142.653 318.783 141.602 318.783 140.845C318.783 140.61 318.769 140.261 318.739 139.798C318.717 139.335 318.706 138.986 318.706 138.75C318.706 138.434 318.809 138.177 319.015 137.979C319.228 137.773 319.489 137.67 319.798 137.67C320.474 137.67 320.845 138.148 320.911 139.103L320.944 140.393C322.179 138.747 323.447 137.923 324.748 137.923C325.924 137.923 326.744 138.442 327.207 139.478C327.523 140.169 327.696 141.191 327.725 142.543V143.657L327.714 144.682C327.714 145.292 327.791 146.082 327.946 147.053C328.107 148.016 328.188 148.798 328.188 149.401C328.188 149.725 328.082 149.986 327.868 150.184C327.663 150.39 327.402 150.493 327.086 150.493ZM339.633 150.162C339.229 150.162 338.916 149.949 338.696 149.523C338.314 148.78 337.737 147.902 336.965 146.887L335.013 144.23C334.587 144.568 333.925 145.042 333.029 145.652C332.948 146.792 332.907 147.902 332.907 148.982C332.907 149.313 332.804 149.581 332.599 149.787C332.4 149.993 332.143 150.096 331.827 150.096C331.084 150.096 330.713 149.596 330.713 148.596C330.713 147.986 330.754 147.075 330.834 145.862C330.923 144.642 330.967 143.727 330.967 143.117C330.967 141.999 330.981 140.724 331.011 139.291C331.048 137.85 331.066 136.578 331.066 135.476C331.066 135.145 331.048 134.755 331.011 134.307C330.981 133.859 330.967 133.469 330.967 133.138C330.967 132.807 331.066 132.539 331.264 132.333C331.47 132.128 331.731 132.025 332.047 132.025C332.363 132.025 332.621 132.128 332.819 132.333C333.025 132.539 333.128 132.807 333.128 133.138C333.128 133.476 333.146 133.877 333.183 134.34C333.22 134.796 333.238 135.193 333.238 135.531L333.161 139.081C333.124 140.36 333.113 141.639 333.128 142.918C334.127 142.154 335.09 141.316 336.017 140.404L338.442 137.901C338.685 137.651 338.946 137.526 339.225 137.526C339.512 137.526 339.769 137.64 339.997 137.868C340.232 138.096 340.35 138.361 340.35 138.662C340.35 138.912 340.243 139.158 340.03 139.401C339.126 140.459 338.012 141.595 336.689 142.808L339.093 146.082C340.217 147.619 340.78 148.618 340.78 149.081C340.78 149.376 340.662 149.629 340.427 149.842C340.199 150.055 339.934 150.162 339.633 150.162Z"
    fill="black" />
  <g filter="url(#filter0_i_6039_2323)">
    <rect x="92.9287" y="168.613" width="335" height="65.0324" rx="19.3549" fill="#97C236" />
    <path
      d="M163.988 194.622C163.551 194.622 162.354 194.505 160.396 194.27C160.279 195.815 160.22 197.869 160.22 200.431L160.207 206.089C161.325 206.064 162.463 206.051 163.622 206.051C164.126 206.051 164.542 206.219 164.87 206.555C165.206 206.891 165.374 207.295 165.374 207.765C165.374 208.236 165.206 208.639 164.87 208.975C164.542 209.302 164.126 209.466 163.622 209.466C163.152 209.466 162.446 209.479 161.505 209.504C160.565 209.521 159.859 209.529 159.388 209.529C158.834 209.529 158.002 209.601 156.893 209.743C155.785 209.895 154.953 209.97 154.398 209.97C153.894 209.97 153.474 209.806 153.138 209.479C152.811 209.143 152.647 208.74 152.647 208.269C152.647 207.799 152.811 207.395 153.138 207.059C153.474 206.723 153.894 206.555 154.398 206.555C154.97 206.555 155.722 206.492 156.654 206.366C156.637 205.375 156.629 203.477 156.629 200.671C156.629 198.386 156.713 196.206 156.881 194.131L154.146 194.207C153.642 194.207 153.218 194.043 152.874 193.715C152.538 193.387 152.37 192.98 152.37 192.493C152.37 191.997 152.538 191.594 152.874 191.283C153.185 190.998 153.567 190.834 154.02 190.792C154.76 190.725 156.045 190.691 157.876 190.691C159.523 190.691 161.644 190.867 164.24 191.22C165.273 191.363 165.79 191.943 165.79 192.959C165.79 193.497 165.58 193.921 165.16 194.232C164.815 194.492 164.425 194.622 163.988 194.622ZM189.114 210.033C188.45 210.033 187.946 209.714 187.602 209.076C187.19 208.311 186.573 207.408 185.749 206.366C184.473 204.745 183.796 203.884 183.721 203.783C183.049 204.279 182.494 204.657 182.057 204.917C181.973 206.085 181.931 207.202 181.931 208.269C181.931 208.756 181.768 209.16 181.44 209.479C181.112 209.798 180.696 209.958 180.192 209.958C179.008 209.958 178.416 209.252 178.416 207.841C178.416 207.177 178.462 206.186 178.554 204.867C178.655 203.54 178.706 202.544 178.706 201.88C178.706 200.662 178.722 199.272 178.756 197.71C178.798 196.139 178.819 194.753 178.819 193.551C178.819 193.19 178.798 192.766 178.756 192.279C178.722 191.783 178.706 191.355 178.706 190.993C178.706 190.506 178.869 190.107 179.197 189.796C179.525 189.477 179.94 189.317 180.444 189.317C180.949 189.317 181.364 189.477 181.692 189.796C182.02 190.107 182.183 190.506 182.183 190.993C182.183 191.363 182.204 191.8 182.246 192.304C182.288 192.808 182.309 193.245 182.309 193.614C182.309 194.614 182.284 195.798 182.234 197.168C182.183 198.478 182.162 199.646 182.171 200.671C183.313 199.789 185.052 198.184 187.388 195.857C187.757 195.488 188.177 195.303 188.648 195.303C189.118 195.303 189.534 195.475 189.895 195.819C190.256 196.164 190.437 196.563 190.437 197.017C190.437 197.403 190.273 197.777 189.946 198.138C188.954 199.247 187.774 200.406 186.405 201.616L189.026 204.993C190.294 206.681 190.928 207.807 190.928 208.37C190.928 208.832 190.744 209.223 190.374 209.542C190.004 209.869 189.584 210.033 189.114 210.033ZM195.326 194.37C194.788 194.37 194.322 194.19 193.927 193.829C193.533 193.467 193.335 193.026 193.335 192.505C193.335 191.985 193.533 191.544 193.927 191.182C194.322 190.821 194.788 190.641 195.326 190.641C195.864 190.641 196.326 190.821 196.712 191.182C197.107 191.544 197.304 191.985 197.304 192.505C197.304 193.026 197.107 193.467 196.712 193.829C196.326 194.19 195.864 194.37 195.326 194.37ZM196.397 203.607C196.397 204.086 196.41 204.854 196.435 205.913C196.469 206.971 196.485 207.74 196.485 208.219C196.485 208.706 196.322 209.109 195.994 209.428C195.666 209.739 195.25 209.895 194.746 209.895C194.242 209.895 193.827 209.739 193.499 209.428C193.171 209.109 193.008 208.706 193.008 208.219C193.008 207.74 192.991 206.971 192.957 205.913C192.932 204.854 192.919 204.086 192.919 203.607C192.919 202.859 192.961 201.922 193.045 200.797C193.129 199.671 193.171 198.734 193.171 197.987C193.171 197.5 193.335 197.101 193.663 196.79C193.99 196.471 194.406 196.311 194.91 196.311C195.414 196.311 195.83 196.471 196.158 196.79C196.485 197.101 196.649 197.5 196.649 197.987C196.649 198.734 196.607 199.671 196.523 200.797C196.439 201.922 196.397 202.859 196.397 203.607ZM209.615 210.411C208.582 210.411 208.007 209.903 207.889 208.887C207.772 208.021 207.654 207.152 207.536 206.278C207.41 205.354 207.347 204.485 207.347 203.67C207.347 203.451 207.36 203.078 207.385 202.548C207.419 202.019 207.436 201.645 207.436 201.427C207.436 201.368 207.444 201.221 207.461 200.986C207.478 200.742 207.486 200.545 207.486 200.394C207.486 199.696 207.305 199.348 206.944 199.348C206.171 199.348 205.411 199.801 204.663 200.709C203.924 201.607 203.344 202.75 202.924 204.136C202.908 204.413 202.87 204.783 202.811 205.245C202.761 205.623 202.735 205.993 202.735 206.354C202.735 206.589 202.761 206.946 202.811 207.425C202.87 207.895 202.899 208.248 202.899 208.483C202.899 208.962 202.731 209.357 202.395 209.668C202.068 209.987 201.652 210.147 201.148 210.147C200.644 210.147 200.228 209.987 199.9 209.668C199.573 209.357 199.409 208.962 199.409 208.483C199.409 208.248 199.384 207.895 199.333 207.425C199.283 206.946 199.258 206.589 199.258 206.354C199.258 205.547 199.316 204.426 199.434 202.989C199.552 201.553 199.61 200.431 199.61 199.625C199.61 199.373 199.594 198.999 199.56 198.503C199.535 197.999 199.522 197.626 199.522 197.382C199.522 196.912 199.69 196.525 200.026 196.223C200.371 195.912 200.791 195.756 201.286 195.756C202.387 195.756 202.975 196.416 203.05 197.735L203.063 197.873C204.29 196.639 205.583 196.021 206.944 196.021C208.532 196.021 209.628 196.685 210.233 198.012C210.636 198.902 210.838 200.234 210.838 202.006V202.901C210.829 203.288 210.825 203.561 210.825 203.72C210.825 204.375 210.913 205.22 211.09 206.253C211.275 207.286 211.367 208.126 211.367 208.773C211.367 209.244 211.199 209.634 210.863 209.945C210.527 210.256 210.111 210.411 209.615 210.411ZM222.418 196.853C222.527 193.988 222.657 192.01 222.809 190.918C222.951 189.926 223.497 189.431 224.447 189.431C224.942 189.431 225.341 189.59 225.644 189.91C225.946 190.229 226.097 190.62 226.097 191.082C226.097 192.3 226.001 194.114 225.808 196.525C225.623 198.936 225.53 200.751 225.53 201.969C225.53 204.942 225.627 206.933 225.82 207.941C225.845 208.076 225.858 208.198 225.858 208.307C225.858 208.769 225.69 209.151 225.354 209.454C225.018 209.748 224.627 209.895 224.182 209.895C223.56 209.895 223.098 209.617 222.796 209.063C222.225 209.407 221.632 209.664 221.019 209.832C220.406 210.008 219.772 210.096 219.117 210.096C217.235 210.096 215.672 209.496 214.429 208.294C213.161 207.068 212.526 205.505 212.526 203.607C212.526 201.347 213.165 199.524 214.442 198.138C215.718 196.744 217.386 196.046 219.444 196.046C220.074 196.046 220.637 196.113 221.133 196.248C221.628 196.382 222.057 196.584 222.418 196.853ZM222.166 200.822C221.889 200.293 221.527 199.898 221.082 199.638C220.637 199.377 220.108 199.247 219.495 199.247C218.251 199.247 217.319 199.608 216.697 200.331C216.076 201.045 215.765 202.12 215.765 203.556C215.765 204.464 216.101 205.241 216.773 205.888C217.445 206.534 218.226 206.858 219.117 206.858C219.763 206.858 220.255 206.782 220.591 206.631C220.818 206.53 221.204 206.261 221.75 205.825C221.893 205.707 222.032 205.577 222.166 205.434C222.149 205.031 222.149 203.493 222.166 200.822ZM239.24 210.348C238.854 210.348 238.24 209.928 237.4 209.088C236.628 209.458 235.947 209.735 235.359 209.92C234.771 210.113 234.271 210.21 233.86 210.21C231.835 210.21 230.314 209.668 229.298 208.584C228.29 207.5 227.786 205.879 227.786 203.72C227.786 201.696 228.534 199.965 230.029 198.529C231.524 197.084 233.313 196.361 235.397 196.361C236.195 196.361 237.119 196.588 238.169 197.042C239.438 197.588 240.072 198.222 240.072 198.944C240.072 199.247 239.975 199.512 239.782 199.738C239.698 200.074 239.631 200.499 239.58 201.011C239.538 201.515 239.517 202.107 239.517 202.788C239.517 204.392 239.631 205.547 239.858 206.253C239.883 206.329 240.076 206.765 240.437 207.563C240.765 208.286 240.929 208.698 240.929 208.798C240.929 209.244 240.756 209.613 240.412 209.907C240.076 210.201 239.685 210.348 239.24 210.348ZM236.115 201.704C236.115 201.435 236.132 201.129 236.165 200.784C236.207 200.431 236.266 200.041 236.342 199.612C236.174 199.528 236.023 199.47 235.888 199.436C235.762 199.394 235.653 199.373 235.561 199.373C234.418 199.373 233.419 199.822 232.562 200.721C231.705 201.612 231.276 202.645 231.276 203.821C231.276 204.947 231.478 205.795 231.881 206.366C232.284 206.929 232.889 207.211 233.696 207.211C234.217 207.211 234.708 207.127 235.17 206.959C235.64 206.782 236.081 206.526 236.493 206.19C236.241 204.191 236.115 202.695 236.115 201.704ZM259.88 210.046C258.704 210.046 257.587 209.84 256.528 209.428C256.218 209.739 255.84 209.895 255.394 209.895C254.941 209.895 254.55 209.743 254.223 209.441C253.903 209.139 253.744 208.761 253.744 208.307C253.744 208.105 253.756 207.799 253.782 207.387C253.807 206.967 253.819 206.656 253.819 206.455V192.178C253.819 191.573 253.954 191.035 254.223 190.565C254.559 189.968 255.037 189.67 255.659 189.67C256.558 189.67 257.007 190.157 257.007 191.132C257.007 191.241 256.991 191.418 256.957 191.661C256.932 191.896 256.919 192.069 256.919 192.178V197.004C257.541 196.66 258.137 196.403 258.708 196.235C259.28 196.059 259.83 195.971 260.359 195.971C262.333 195.971 263.929 196.689 265.147 198.125C266.282 199.47 266.849 201.099 266.849 203.015C266.849 204.963 266.189 206.614 264.87 207.967C263.526 209.353 261.863 210.046 259.88 210.046ZM260.359 199.196C259.922 199.196 259.418 199.323 258.847 199.575C258.276 199.827 257.633 200.205 256.919 200.709C256.911 201.507 256.911 203.292 256.919 206.064C258.07 206.56 259.057 206.807 259.88 206.807C260.947 206.807 261.825 206.45 262.514 205.736C263.203 205.014 263.547 204.107 263.547 203.015C263.547 201.922 263.266 201.019 262.703 200.305C262.115 199.566 261.334 199.196 260.359 199.196ZM275.568 210.096C273.561 210.096 271.918 209.617 270.641 208.66C269.23 207.601 268.525 206.11 268.525 204.186C268.525 202.061 269.083 200.263 270.2 198.793C271.444 197.164 273.12 196.349 275.228 196.349C276.69 196.349 277.904 196.584 278.87 197.054C280.138 197.676 280.773 198.642 280.773 199.953C280.773 200.877 280.256 201.696 279.223 202.41C278.752 202.737 277.807 203.216 276.387 203.846L272.141 205.724C272.544 206.161 273.031 206.488 273.603 206.707C274.174 206.925 274.829 207.034 275.568 207.034C276.694 207.034 277.648 206.803 278.429 206.341C279.126 205.93 279.685 205.724 280.105 205.724C280.978 205.724 281.415 206.148 281.415 206.996C281.415 207.954 280.714 208.735 279.311 209.34C278.135 209.844 276.887 210.096 275.568 210.096ZM275.228 199.398C274.447 199.398 273.779 199.659 273.225 200.179C272.67 200.7 272.225 201.481 271.889 202.523C272.838 202.111 273.783 201.704 274.724 201.301C275.858 200.788 276.761 200.314 277.433 199.877C276.87 199.558 276.135 199.398 275.228 199.398ZM287.539 207.664C287.539 209.26 286.96 210.058 285.8 210.058C285.296 210.058 284.88 209.899 284.553 209.58C284.225 209.26 284.061 208.849 284.061 208.345V190.918C284.061 190.43 284.238 190.031 284.591 189.721C284.927 189.435 285.342 189.292 285.838 189.292C286.334 189.292 286.741 189.443 287.06 189.746C287.38 190.04 287.539 190.43 287.539 190.918V207.664ZM293.613 194.37C293.075 194.37 292.609 194.19 292.214 193.829C291.819 193.467 291.622 193.026 291.622 192.505C291.622 191.985 291.819 191.544 292.214 191.182C292.609 190.821 293.075 190.641 293.613 190.641C294.15 190.641 294.613 190.821 294.999 191.182C295.394 191.544 295.591 191.985 295.591 192.505C295.591 193.026 295.394 193.467 294.999 193.829C294.613 194.19 294.15 194.37 293.613 194.37ZM294.684 203.607C294.684 204.086 294.697 204.854 294.722 205.913C294.755 206.971 294.772 207.74 294.772 208.219C294.772 208.706 294.608 209.109 294.281 209.428C293.953 209.739 293.537 209.895 293.033 209.895C292.529 209.895 292.113 209.739 291.786 209.428C291.458 209.109 291.294 208.706 291.294 208.219C291.294 207.74 291.277 206.971 291.244 205.913C291.219 204.854 291.206 204.086 291.206 203.607C291.206 202.859 291.248 201.922 291.332 200.797C291.416 199.671 291.458 198.734 291.458 197.987C291.458 197.5 291.622 197.101 291.95 196.79C292.277 196.471 292.693 196.311 293.197 196.311C293.701 196.311 294.117 196.471 294.445 196.79C294.772 197.101 294.936 197.5 294.936 197.987C294.936 198.734 294.894 199.671 294.81 200.797C294.726 201.922 294.684 202.859 294.684 203.607ZM304.324 210.096C302.316 210.096 300.674 209.617 299.397 208.66C297.985 207.601 297.28 206.11 297.28 204.186C297.28 202.061 297.838 200.263 298.956 198.793C300.199 197.164 301.875 196.349 303.983 196.349C305.445 196.349 306.659 196.584 307.625 197.054C308.893 197.676 309.528 198.642 309.528 199.953C309.528 200.877 309.011 201.696 307.978 202.41C307.507 202.737 306.562 203.216 305.143 203.846L300.896 205.724C301.299 206.161 301.787 206.488 302.358 206.707C302.929 206.925 303.584 207.034 304.324 207.034C305.449 207.034 306.403 206.803 307.184 206.341C307.881 205.93 308.44 205.724 308.86 205.724C309.734 205.724 310.17 206.148 310.17 206.996C310.17 207.954 309.469 208.735 308.066 209.34C306.89 209.844 305.642 210.096 304.324 210.096ZM303.983 199.398C303.202 199.398 302.534 199.659 301.98 200.179C301.425 200.7 300.98 201.481 300.644 202.523C301.593 202.111 302.538 201.704 303.479 201.301C304.613 200.788 305.516 200.314 306.189 199.877C305.626 199.558 304.891 199.398 303.983 199.398ZM319.18 208.584C319.138 209.004 318.966 209.349 318.663 209.617C318.361 209.886 317.987 210.021 317.542 210.021C316.693 210.021 316.093 209.584 315.74 208.71C314.833 206.442 313.442 203.057 311.569 198.554C311.46 198.302 311.405 198.062 311.405 197.836C311.405 197.382 311.586 197 311.947 196.689C312.317 196.37 312.737 196.21 313.207 196.21C313.93 196.21 314.446 196.542 314.757 197.206C315.236 198.222 316.168 200.599 317.554 204.338C318 203.388 318.613 201.943 319.394 200.003C319.629 199.356 319.995 198.453 320.49 197.294C320.835 196.622 321.356 196.286 322.053 196.286C322.523 196.286 322.939 196.441 323.3 196.752C323.67 197.063 323.855 197.449 323.855 197.911C323.855 198.214 323.174 199.877 321.814 202.901C320.705 205.371 319.827 207.265 319.18 208.584ZM331.315 210.096C329.307 210.096 327.665 209.617 326.388 208.66C324.976 207.601 324.271 206.11 324.271 204.186C324.271 202.061 324.829 200.263 325.947 198.793C327.19 197.164 328.866 196.349 330.974 196.349C332.436 196.349 333.65 196.584 334.616 197.054C335.885 197.676 336.519 198.642 336.519 199.953C336.519 200.877 336.002 201.696 334.969 202.41C334.498 202.737 333.553 203.216 332.134 203.846L327.887 205.724C328.29 206.161 328.778 206.488 329.349 206.707C329.92 206.925 330.575 207.034 331.315 207.034C332.44 207.034 333.394 206.803 334.175 206.341C334.872 205.93 335.431 205.724 335.851 205.724C336.725 205.724 337.161 206.148 337.161 206.996C337.161 207.954 336.46 208.735 335.057 209.34C333.881 209.844 332.634 210.096 331.315 210.096ZM330.974 199.398C330.193 199.398 329.525 199.659 328.971 200.179C328.416 200.7 327.971 201.481 327.635 202.523C328.584 202.111 329.529 201.704 330.47 201.301C331.604 200.788 332.508 200.314 333.18 199.877C332.617 199.558 331.882 199.398 330.974 199.398ZM353.467 194.37C352.929 194.37 352.463 194.19 352.068 193.829C351.673 193.467 351.476 193.026 351.476 192.505C351.476 191.985 351.673 191.544 352.068 191.182C352.463 190.821 352.929 190.641 353.467 190.641C354.005 190.641 354.467 190.821 354.853 191.182C355.248 191.544 355.445 191.985 355.445 192.505C355.445 193.026 355.248 193.467 354.853 193.829C354.467 194.19 354.005 194.37 353.467 194.37ZM354.538 203.607C354.538 204.086 354.551 204.854 354.576 205.913C354.609 206.971 354.626 207.74 354.626 208.219C354.626 208.706 354.462 209.109 354.135 209.428C353.807 209.739 353.391 209.895 352.887 209.895C352.383 209.895 351.967 209.739 351.64 209.428C351.312 209.109 351.148 208.706 351.148 208.219C351.148 207.74 351.132 206.971 351.098 205.913C351.073 204.854 351.06 204.086 351.06 203.607C351.06 202.859 351.102 201.922 351.186 200.797C351.27 199.671 351.312 198.734 351.312 197.987C351.312 197.5 351.476 197.101 351.804 196.79C352.131 196.471 352.547 196.311 353.051 196.311C353.555 196.311 353.971 196.471 354.299 196.79C354.626 197.101 354.79 197.5 354.79 197.987C354.79 198.734 354.748 199.671 354.664 200.797C354.58 201.922 354.538 202.859 354.538 203.607ZM366.723 199.373C366.547 199.373 366.337 199.369 366.093 199.36C365.858 199.344 365.652 199.335 365.476 199.335C365.131 199.335 364.732 199.369 364.278 199.436C364.43 202.83 364.505 205.047 364.505 206.089C364.505 206.198 364.51 206.404 364.518 206.707C364.526 207.001 364.531 207.24 364.531 207.425C364.531 209.357 363.921 210.323 362.703 210.323C362.241 210.323 361.842 210.18 361.506 209.895C361.137 209.592 360.952 209.214 360.952 208.761C360.952 208.458 360.964 208.004 360.99 207.4C361.015 206.795 361.027 206.341 361.027 206.039C361.027 205.022 360.952 202.847 360.801 199.512C360.28 199.486 359.49 199.419 358.432 199.31C357.382 199.192 356.857 198.646 356.857 197.672C356.857 197.201 357.016 196.802 357.335 196.475C357.655 196.147 358.066 195.983 358.57 195.983C358.881 195.983 359.595 196.034 360.712 196.134C360.704 195.866 360.683 195.42 360.649 194.799C360.616 194.261 360.599 193.845 360.599 193.551C360.599 193.081 360.771 192.69 361.116 192.379C361.46 192.069 361.876 191.913 362.363 191.913C363.606 191.913 364.228 192.959 364.228 195.051L364.203 196.084C364.724 196.008 365.148 195.971 365.476 195.971C366.442 195.971 367.101 196.034 367.454 196.16C368.126 196.395 368.462 196.907 368.462 197.697C368.462 198.176 368.298 198.575 367.971 198.894C367.643 199.213 367.227 199.373 366.723 199.373Z"
      fill="#F4F1D4" />
  </g>
  <g filter="url(#filter1_i_6039_2323)">
    <rect x="92.9287" y="246.549" width="335" height="65.0324" rx="19.3549" fill="#C24736" />
    <path
      d="M211.759 272.344C211.104 272.344 210.084 272.298 208.697 272.205C207.362 272.113 206.341 272.071 205.635 272.079C205.669 273.037 205.782 274.742 205.976 277.195C206.152 279.362 206.24 281.076 206.24 282.336C206.24 282.622 206.27 283.046 206.328 283.609C206.387 284.172 206.417 284.596 206.417 284.882C206.417 285.512 206.282 286.079 206.013 286.583C205.669 287.23 205.178 287.553 204.539 287.553C204.077 287.553 203.67 287.406 203.317 287.112C202.922 286.784 202.725 286.373 202.725 285.877C202.725 285.759 202.746 285.583 202.788 285.348C202.83 285.104 202.851 284.919 202.851 284.793C202.851 284.407 202.821 283.823 202.762 283.042C202.712 282.261 202.687 281.673 202.687 281.278C202.687 280.152 202.599 278.627 202.422 276.704C202.221 274.494 202.103 272.97 202.069 272.129H201.414C199.541 272.129 198.054 271.995 196.953 271.726C196.021 271.499 195.555 270.949 195.555 270.076C195.555 269.647 195.706 269.261 196.008 268.916C196.361 268.505 196.823 268.32 197.394 268.362C197.688 268.379 198.356 268.45 199.398 268.576C200.23 268.668 200.902 268.715 201.414 268.715C201.927 268.715 202.691 268.706 203.707 268.689C204.732 268.673 205.501 268.664 206.013 268.664C206.652 268.664 207.61 268.71 208.886 268.803C210.163 268.887 211.121 268.929 211.759 268.929C212.263 268.929 212.683 269.093 213.02 269.42C213.364 269.748 213.536 270.151 213.536 270.63C213.536 271.109 213.364 271.516 213.02 271.852C212.683 272.18 212.263 272.344 211.759 272.344ZM218.425 275.922C219.039 275.318 219.694 274.868 220.391 274.574C221.097 274.272 221.849 274.12 222.647 274.12C224.083 274.12 225.116 274.524 225.746 275.33C226.217 275.935 226.502 276.863 226.603 278.115C226.645 279.148 226.691 280.186 226.742 281.227C226.876 282.58 226.96 283.403 226.994 283.697C227.111 284.63 227.254 285.444 227.422 286.142C227.464 286.318 227.485 286.473 227.485 286.608C227.485 287.078 227.305 287.465 226.943 287.767C226.591 288.078 226.175 288.233 225.696 288.233C224.848 288.233 224.297 287.813 224.045 286.973C223.844 286.293 223.659 285.335 223.491 284.1C223.34 282.916 223.264 281.941 223.264 281.177C223.264 280.967 223.272 280.652 223.289 280.232C223.314 279.803 223.327 279.484 223.327 279.274C223.327 278.653 223.319 278.291 223.302 278.191C223.226 277.728 223.008 277.497 222.647 277.497C221.714 277.497 220.87 277.926 220.114 278.783C219.727 279.211 219.198 280.026 218.526 281.227C218.526 284.268 218.379 286.1 218.085 286.721C217.757 287.41 217.237 287.755 216.523 287.755C216.052 287.755 215.632 287.599 215.262 287.288C214.901 286.969 214.721 286.578 214.721 286.116C214.721 285.957 214.767 285.734 214.859 285.449C214.918 285.264 214.968 284.13 215.01 282.046C214.968 280.358 214.977 277.548 215.036 273.616L215.061 273.201C215.111 272.209 215.136 271.546 215.136 271.21C215.136 270.949 215.094 270.567 215.01 270.063C214.935 269.551 214.897 269.164 214.897 268.904C214.897 268.425 215.069 268.034 215.414 267.732C215.758 267.421 216.174 267.266 216.661 267.266C217.493 267.266 218.051 267.711 218.337 268.601C218.497 269.105 218.577 269.878 218.577 270.92C218.577 271.76 218.551 272.613 218.501 273.478C218.45 274.301 218.425 275.116 218.425 275.922ZM232.475 272.306C231.938 272.306 231.471 272.125 231.077 271.764C230.682 271.403 230.484 270.962 230.484 270.441C230.484 269.92 230.682 269.479 231.077 269.118C231.471 268.757 231.938 268.576 232.475 268.576C233.013 268.576 233.475 268.757 233.861 269.118C234.256 269.479 234.454 269.92 234.454 270.441C234.454 270.962 234.256 271.403 233.861 271.764C233.475 272.125 233.013 272.306 232.475 272.306ZM233.546 281.542C233.546 282.021 233.559 282.79 233.584 283.848C233.618 284.907 233.635 285.675 233.635 286.154C233.635 286.641 233.471 287.045 233.143 287.364C232.815 287.675 232.4 287.83 231.896 287.83C231.392 287.83 230.976 287.675 230.648 287.364C230.321 287.045 230.157 286.641 230.157 286.154C230.157 285.675 230.14 284.907 230.106 283.848C230.081 282.79 230.068 282.021 230.068 281.542C230.068 280.795 230.11 279.858 230.194 278.732C230.279 277.607 230.321 276.67 230.321 275.922C230.321 275.435 230.484 275.036 230.812 274.725C231.14 274.406 231.555 274.246 232.059 274.246C232.563 274.246 232.979 274.406 233.307 274.725C233.635 275.036 233.798 275.435 233.798 275.922C233.798 276.67 233.756 277.607 233.672 278.732C233.588 279.858 233.546 280.795 233.546 281.542ZM245.706 278.228C244.875 278.228 244.375 277.88 244.207 277.182C243.871 277.124 243.526 277.094 243.173 277.094C241.149 277.094 240.137 277.371 240.137 277.926C240.137 278.254 240.746 278.695 241.964 279.249C243.627 280.013 244.753 280.61 245.341 281.038C246.559 281.92 247.168 282.916 247.168 284.025C247.168 285.47 246.496 286.566 245.152 287.314C244.068 287.91 242.737 288.208 241.157 288.208C240.04 288.208 239.019 288.036 238.095 287.692C236.835 287.221 236.205 286.528 236.205 285.612C236.205 284.772 236.705 284.352 237.705 284.352C238.091 284.352 238.65 284.474 239.381 284.718C240.111 284.961 240.674 285.083 241.069 285.083C242.774 285.083 243.631 284.739 243.64 284.05C243.64 283.621 243.047 283.147 241.863 282.626C240.132 281.862 239.024 281.311 238.536 280.975C237.352 280.144 236.76 279.131 236.76 277.938C236.76 276.25 237.654 275.112 239.444 274.524C240.494 274.179 242.09 274.007 244.232 274.007C245.072 274.007 245.694 274.116 246.097 274.335C246.651 274.629 246.928 275.171 246.928 275.96C246.928 277.472 246.521 278.228 245.706 278.228ZM263.473 272.306C262.936 272.306 262.47 272.125 262.075 271.764C261.68 271.403 261.482 270.962 261.482 270.441C261.482 269.92 261.68 269.479 262.075 269.118C262.47 268.757 262.936 268.576 263.473 268.576C264.011 268.576 264.473 268.757 264.859 269.118C265.254 269.479 265.452 269.92 265.452 270.441C265.452 270.962 265.254 271.403 264.859 271.764C264.473 272.125 264.011 272.306 263.473 272.306ZM264.544 281.542C264.544 282.021 264.557 282.79 264.582 283.848C264.616 284.907 264.633 285.675 264.633 286.154C264.633 286.641 264.469 287.045 264.141 287.364C263.814 287.675 263.398 287.83 262.894 287.83C262.39 287.83 261.974 287.675 261.646 287.364C261.319 287.045 261.155 286.641 261.155 286.154C261.155 285.675 261.138 284.907 261.104 283.848C261.079 282.79 261.067 282.021 261.067 281.542C261.067 280.795 261.109 279.858 261.193 278.732C261.277 277.607 261.319 276.67 261.319 275.922C261.319 275.435 261.482 275.036 261.81 274.725C262.138 274.406 262.554 274.246 263.058 274.246C263.562 274.246 263.977 274.406 264.305 274.725C264.633 275.036 264.796 275.435 264.796 275.922C264.796 276.67 264.754 277.607 264.67 278.732C264.586 279.858 264.544 280.795 264.544 281.542ZM276.704 278.228C275.873 278.228 275.373 277.88 275.205 277.182C274.869 277.124 274.524 277.094 274.172 277.094C272.147 277.094 271.135 277.371 271.135 277.926C271.135 278.254 271.744 278.695 272.962 279.249C274.625 280.013 275.751 280.61 276.339 281.038C277.557 281.92 278.166 282.916 278.166 284.025C278.166 285.47 277.494 286.566 276.15 287.314C275.066 287.91 273.735 288.208 272.155 288.208C271.038 288.208 270.017 288.036 269.093 287.692C267.833 287.221 267.203 286.528 267.203 285.612C267.203 284.772 267.703 284.352 268.703 284.352C269.089 284.352 269.648 284.474 270.379 284.718C271.11 284.961 271.672 285.083 272.067 285.083C273.772 285.083 274.629 284.739 274.638 284.05C274.638 283.621 274.046 283.147 272.861 282.626C271.131 281.862 270.022 281.311 269.534 280.975C268.35 280.144 267.758 279.131 267.758 277.938C267.758 276.25 268.652 275.112 270.442 274.524C271.492 274.179 273.088 274.007 275.23 274.007C276.07 274.007 276.692 274.116 277.095 274.335C277.649 274.629 277.927 275.171 277.927 275.96C277.927 277.472 277.519 278.228 276.704 278.228ZM301.452 286.961C299.495 287.692 297.021 288.057 294.03 288.057C293.526 288.057 293.073 287.847 292.67 287.427C292.275 287.007 292.077 286.557 292.077 286.079V272.722C292.052 272.15 292.031 271.579 292.014 271.008C291.989 270.361 292.01 269.815 292.077 269.37C292.195 268.58 292.93 268.101 294.282 267.933C294.921 267.749 295.979 267.656 297.458 267.656C299.046 267.656 300.566 268.169 302.019 269.193C303.725 270.386 304.577 271.877 304.577 273.667C304.577 274.633 304.401 275.448 304.048 276.111C303.771 276.649 303.288 277.224 302.599 277.838C303.414 278.233 304.136 278.829 304.766 279.627C305.48 280.517 305.837 281.404 305.837 282.286C305.837 283.403 305.228 284.462 304.01 285.461C303.196 286.125 302.343 286.625 301.452 286.961ZM297.458 271.071C296.374 271.071 295.723 271.079 295.505 271.096L295.517 273.768L295.505 276.414C296.269 276.506 296.845 276.536 297.231 276.502C299.802 276.3 301.087 275.355 301.087 273.667C301.087 273.07 300.709 272.495 299.953 271.94C299.172 271.361 298.34 271.071 297.458 271.071ZM298.932 279.98C298.168 279.98 297.025 279.95 295.505 279.892V284.604C296.95 284.529 298.516 284.252 300.205 283.773C301.683 283.353 302.414 282.899 302.397 282.412C302.372 281.765 301.898 281.19 300.974 280.685C300.251 280.282 299.571 280.047 298.932 279.98ZM313.789 288.221C311.655 288.221 309.975 287.746 308.748 286.797C307.715 286.007 307.198 285.096 307.198 284.063C307.198 283.533 307.358 283.096 307.677 282.752C307.996 282.399 308.437 282.223 309 282.223C309.756 282.223 310.311 282.609 310.664 283.382C311.142 284.415 312.226 284.932 313.915 284.932C315.36 284.932 316.758 284.617 318.111 283.987C319.514 283.34 320.215 282.63 320.215 281.857C320.215 280.799 319.778 280.102 318.905 279.766C318.283 279.522 317.035 279.379 315.162 279.337C313.709 279.304 312.407 279.031 311.256 278.518C309.702 277.821 308.937 276.821 308.963 275.519C308.988 273.881 309.861 272.382 311.583 271.021C313.306 269.651 315.204 268.967 317.279 268.967C318.102 268.967 319.119 269.156 320.328 269.534C321.832 270.004 322.584 270.546 322.584 271.159C322.584 271.596 322.433 271.982 322.13 272.319C321.794 272.697 321.362 272.886 320.833 272.886C320.438 272.886 319.845 272.802 319.056 272.634C318.275 272.466 317.682 272.382 317.279 272.382C316.195 272.39 315.166 272.65 314.192 273.163C313.184 273.684 312.68 274.251 312.68 274.864C312.68 275.183 312.831 275.448 313.133 275.658C313.444 275.859 313.906 276.002 314.519 276.086C315.595 276.145 316.666 276.204 317.733 276.263C319.598 276.405 321.072 276.93 322.156 277.838C323.348 278.846 323.945 280.24 323.945 282.021C323.945 284.189 322.71 285.831 320.24 286.948C318.359 287.797 316.208 288.221 313.789 288.221Z"
      fill="#F4F1D4" />
  </g>
  <path
    d="M99.177 375.986C97.0895 375.986 95.5532 375.214 94.5683 373.67C94.4359 373.457 94.3698 373.251 94.3698 373.053C94.3698 372.766 94.4837 372.52 94.7116 372.314C94.9395 372.101 95.1967 371.994 95.4834 371.994C95.7848 371.994 96.0714 372.156 96.3434 372.479C96.733 372.95 97.027 373.251 97.2255 373.384C97.7032 373.707 98.3538 373.869 99.177 373.869C100.449 373.869 101.503 373.384 102.341 372.413C103.143 371.487 103.543 370.374 103.543 369.072C103.543 367.999 103.367 367.128 103.014 366.459C102.558 365.614 101.856 365.191 100.908 365.191C100.122 365.191 99.4784 365.298 98.9786 365.511C98.5816 365.68 98.181 365.971 97.7767 366.382L96.5749 367.694C96.2515 368.025 95.9207 368.19 95.5826 368.19C95.2886 368.19 95.0387 368.088 94.8329 367.882C94.6271 367.669 94.5242 367.415 94.5242 367.121C94.5242 366.974 94.583 366.32 94.7006 365.158C94.9505 362.843 95.0754 361.321 95.0754 360.594C95.0754 360.336 95.0093 360.057 94.877 359.756C94.752 359.447 94.6895 359.219 94.6895 359.072C94.6895 358.624 95.0754 358.4 95.8472 358.4C95.9943 358.4 96.2148 358.414 96.5088 358.444C96.8102 358.466 97.0343 358.477 97.1814 358.477C97.6077 358.477 98.2472 358.462 99.0998 358.433C99.9525 358.403 100.592 358.389 101.018 358.389C101.217 358.389 101.518 358.396 101.922 358.411C102.327 358.425 102.628 358.433 102.827 358.433C102.966 358.433 103.168 358.407 103.433 358.355C103.698 358.297 103.896 358.267 104.028 358.267C104.315 358.267 104.569 358.374 104.789 358.587C105.01 358.8 105.12 359.046 105.12 359.326C105.12 360.149 104.249 360.561 102.507 360.561C102.279 360.561 101.992 360.553 101.647 360.539C101.301 360.524 101.092 360.517 101.018 360.517L99.155 360.55L97.2916 360.605C97.2916 360.935 97.1556 362.159 96.8837 364.276C97.8907 363.475 99.2321 363.074 100.908 363.074C102.525 363.074 103.76 363.707 104.613 364.971C105.333 366.044 105.693 367.411 105.693 369.072C105.693 371.057 105.113 372.693 103.951 373.979C102.746 375.317 101.154 375.986 99.177 375.986ZM113.345 376.085C111.427 376.085 110.015 375.383 109.111 373.979C108.361 372.825 107.987 371.285 107.987 369.359C107.987 365.728 109.46 362.578 112.408 359.91L113.444 358.863C113.952 358.378 114.334 358.135 114.591 358.135C114.885 358.135 115.142 358.242 115.363 358.455C115.583 358.66 115.697 358.907 115.705 359.193C115.719 359.458 115.344 359.969 114.58 360.726L112.331 362.92C111.735 363.523 111.224 364.434 110.798 365.655C111.438 365.36 111.996 365.144 112.474 365.004C112.952 364.857 113.345 364.783 113.654 364.783C115.374 364.783 116.693 365.243 117.612 366.162C118.531 367.081 118.99 368.378 118.99 370.054C118.99 371.811 118.494 373.244 117.502 374.354C116.465 375.508 115.08 376.085 113.345 376.085ZM113.345 367.033C112.713 367.033 112.147 367.143 111.647 367.363C111.456 367.452 110.975 367.735 110.203 368.212C110.159 368.602 110.137 368.984 110.137 369.359C110.137 370.675 110.357 371.748 110.798 372.579C111.357 373.637 112.228 374.166 113.411 374.166C114.521 374.166 115.381 373.769 115.991 372.976C116.557 372.241 116.84 371.267 116.84 370.054C116.84 369.047 116.55 368.293 115.969 367.794C115.389 367.286 114.514 367.033 113.345 367.033ZM125.429 363.813C124.4 363.813 123.588 363.457 122.993 362.744C122.441 362.075 122.166 361.222 122.166 360.186C122.166 359.465 122.541 358.778 123.29 358.124C124.011 357.499 124.735 357.187 125.462 357.187C126.528 357.187 127.377 357.54 128.009 358.245C128.612 358.929 128.913 359.807 128.913 360.88C128.913 361.777 128.539 362.501 127.789 363.052C127.12 363.56 126.333 363.813 125.429 363.813ZM134.151 359.105C133.879 359.546 133.588 360.131 133.28 360.858L132.497 362.644L130.314 367.33L127.844 372.535C127.616 373.101 127.245 373.935 126.73 375.037C126.525 375.427 126.249 375.622 125.903 375.622C125.661 375.622 125.44 375.534 125.242 375.357C125.051 375.188 124.955 374.975 124.955 374.718C124.955 374.607 124.977 374.486 125.021 374.354C125.382 373.362 125.962 372.064 126.763 370.462C127.712 368.573 128.329 367.29 128.616 366.614L131.593 359.998C131.99 359.021 132.354 358.352 132.684 357.992C132.912 357.742 133.147 357.617 133.39 357.617C133.64 357.617 133.86 357.712 134.051 357.903C134.25 358.087 134.349 358.304 134.349 358.554C134.349 358.716 134.283 358.899 134.151 359.105ZM134.437 375.501C133.438 375.501 132.607 375.203 131.946 374.607C131.255 373.983 130.909 373.17 130.909 372.171C130.909 371.083 131.218 370.182 131.835 369.469C132.482 368.705 133.342 368.323 134.415 368.323C135.415 368.323 136.29 368.602 137.039 369.161C137.87 369.785 138.285 370.587 138.285 371.564C138.285 372.689 137.925 373.626 137.205 374.376C136.485 375.126 135.562 375.501 134.437 375.501ZM125.429 359.039C125.091 359.039 124.775 359.149 124.481 359.37C124.165 359.612 124.007 359.884 124.007 360.186C124.007 360.774 124.125 361.218 124.36 361.52C124.602 361.814 124.959 361.961 125.429 361.961C125.826 361.961 126.186 361.873 126.51 361.696C126.877 361.49 127.061 361.218 127.061 360.88C127.061 360.263 126.925 359.804 126.653 359.502C126.381 359.193 125.973 359.039 125.429 359.039ZM134.415 370.175C133.886 370.175 133.471 370.374 133.169 370.77C132.897 371.138 132.761 371.605 132.761 372.171C132.761 372.663 132.92 373.034 133.236 373.284C133.559 373.534 134.04 373.659 134.68 373.659C135.268 373.659 135.705 373.486 135.992 373.141C136.286 372.788 136.433 372.263 136.433 371.564C136.433 371.138 136.205 370.789 135.749 370.517C135.353 370.289 134.908 370.175 134.415 370.175ZM154.725 365.897C154.57 365.897 154.387 365.89 154.173 365.875C153.968 365.86 153.788 365.853 153.633 365.853C153.464 365.853 152.964 365.908 152.134 366.018L152.343 372.535L152.354 373.02L152.365 373.582C152.395 375.192 152.009 375.997 151.208 375.997C150.914 375.997 150.656 375.901 150.436 375.71C150.223 375.519 150.116 375.28 150.116 374.993C150.116 374.714 150.127 374.295 150.149 373.736C150.171 373.178 150.182 372.759 150.182 372.479L149.962 366.04C149.425 366.018 148.609 365.956 147.514 365.853C146.86 365.765 146.533 365.401 146.533 364.761C146.533 364.438 146.632 364.17 146.83 363.957C147.029 363.743 147.282 363.637 147.591 363.637L149.907 363.824C149.907 363.449 149.888 362.95 149.851 362.325C149.822 361.693 149.807 361.237 149.807 360.958C149.807 360.649 149.914 360.395 150.127 360.197C150.34 359.991 150.601 359.888 150.91 359.888C151.571 359.888 151.957 360.428 152.068 361.509C152.09 361.781 152.101 362.108 152.101 362.49L152.079 363.13L152.068 363.813C152.979 363.696 153.501 363.637 153.633 363.637C154.398 363.637 154.898 363.674 155.133 363.747C155.581 363.894 155.805 364.24 155.805 364.783C155.805 365.107 155.702 365.375 155.497 365.588C155.298 365.794 155.041 365.897 154.725 365.897ZM167.228 375.975C166.706 375.975 166.364 375.695 166.203 375.137C166.034 374.534 165.879 373.678 165.74 372.568C165.607 371.502 165.541 370.627 165.541 369.944C165.541 369.752 165.548 369.462 165.563 369.072C165.585 368.683 165.596 368.393 165.596 368.201C165.596 366.82 165.251 366.129 164.56 366.129C163.626 366.129 162.792 366.551 162.057 367.397C161.682 367.83 161.168 368.657 160.513 369.877C160.513 372.678 160.396 374.335 160.16 374.85C159.955 375.306 159.635 375.534 159.201 375.534C158.9 375.534 158.635 375.431 158.407 375.225C158.18 375.019 158.066 374.769 158.066 374.475C158.066 374.372 158.099 374.21 158.165 373.99C158.224 373.806 158.264 373.27 158.286 372.38L158.319 370.748L158.352 362.644C158.404 361.733 158.429 361.119 158.429 360.803C158.429 360.428 158.393 360.075 158.319 359.745C158.253 359.407 158.22 359.057 158.22 358.697C158.22 358.389 158.327 358.135 158.54 357.936C158.753 357.731 159.014 357.628 159.323 357.628C159.925 357.628 160.278 357.951 160.381 358.598C160.499 359.311 160.557 359.954 160.557 360.528C160.557 361.299 160.532 362.104 160.48 362.942C160.436 363.743 160.418 364.548 160.425 365.357L160.436 366.327C161.039 365.519 161.682 364.916 162.366 364.519C163.057 364.115 163.788 363.912 164.56 363.912C165.78 363.912 166.618 364.309 167.074 365.103C167.397 365.662 167.581 366.603 167.625 367.926L167.713 370.032L167.934 372.325C168.037 373.185 168.162 373.942 168.309 374.596C168.338 374.721 168.353 374.828 168.353 374.916C168.353 375.218 168.242 375.467 168.022 375.666C167.801 375.872 167.537 375.975 167.228 375.975ZM175.189 375.942C173.954 375.942 172.892 375.486 172.002 374.574C171.01 373.56 170.488 372.196 170.436 370.484C170.392 368.823 170.811 367.36 171.693 366.096C172.722 364.603 174.156 363.857 175.993 363.857C177.464 363.857 178.577 364.53 179.334 365.875C179.937 366.963 180.227 368.271 180.205 369.8C180.183 371.432 179.757 372.825 178.926 373.979C177.985 375.287 176.74 375.942 175.189 375.942ZM175.85 366.096C174.77 366.088 173.928 366.603 173.325 367.639C172.847 368.47 172.609 369.418 172.609 370.484C172.609 371.55 172.899 372.38 173.48 372.976C173.965 373.468 174.534 373.714 175.189 373.714C175.953 373.714 176.611 373.435 177.162 372.876C177.787 372.259 178.118 371.425 178.155 370.374C178.257 367.529 177.489 366.103 175.85 366.096ZM191.937 368.852C191.937 369.381 191.94 370.175 191.948 371.234C191.955 372.292 191.959 373.086 191.959 373.615C191.959 373.777 191.97 374.023 191.992 374.354C192.021 374.685 192.036 374.931 192.036 375.093C192.036 375.409 191.929 375.666 191.716 375.864C191.503 376.07 191.242 376.173 190.933 376.173C190.367 376.173 190.007 375.824 189.853 375.126C188.934 375.603 187.876 375.842 186.677 375.842C185.715 375.842 184.917 375.629 184.285 375.203C183.587 374.732 183.171 374.045 183.039 373.141C182.752 371.193 182.609 369.458 182.609 367.937C182.609 366.93 182.719 365.783 182.94 364.497C183.043 363.857 183.392 363.538 183.987 363.538C184.303 363.538 184.568 363.64 184.781 363.846C184.994 364.045 185.101 364.302 185.101 364.618C185.101 364.956 185.046 365.496 184.935 366.239C184.832 366.981 184.781 367.547 184.781 367.937C184.781 369.164 184.821 370.215 184.902 371.09C184.983 371.965 185.104 372.667 185.266 373.196C185.509 373.328 185.748 373.431 185.983 373.505C186.218 373.571 186.45 373.604 186.677 373.604C187.662 373.604 188.702 373.446 189.798 373.13L189.787 370.892L189.765 368.753C189.765 367.165 189.834 365.787 189.974 364.618C190.055 363.942 190.411 363.604 191.044 363.604C191.36 363.604 191.624 363.707 191.837 363.912C192.051 364.118 192.15 364.376 192.135 364.684L191.937 368.852ZM203.767 370.539L203.514 374.244C203.47 375.714 203.319 376.915 203.062 377.849C202.731 379.04 202.202 379.918 201.474 380.484C200.592 381.168 199.317 381.51 197.648 381.51C196.67 381.51 195.851 381.443 195.189 381.311C194.263 381.127 193.8 380.745 193.8 380.164C193.8 379.51 194.12 379.183 194.759 379.183C195.024 379.183 195.465 379.246 196.082 379.371C196.7 379.503 197.383 379.562 198.133 379.547C199.544 379.525 200.518 378.841 201.055 377.496C201.408 376.599 201.595 375.221 201.617 373.362C201.22 374.097 200.746 374.648 200.195 375.015C199.651 375.383 199.026 375.567 198.321 375.567C196.99 375.567 195.906 375.115 195.068 374.21C194.237 373.299 193.822 372.119 193.822 370.671C193.822 368.687 194.392 367.088 195.531 365.875C196.707 364.625 198.31 364.001 200.338 364.001C201.022 364.001 201.595 364.089 202.058 364.265C202.521 364.442 202.874 364.706 203.117 365.059C203.903 365.081 204.297 365.519 204.297 366.371C204.297 366.893 204.219 367.591 204.065 368.466C203.896 369.48 203.797 370.171 203.767 370.539ZM200.228 365.765C198.831 365.765 197.751 366.246 196.987 367.209C196.303 368.076 195.961 369.179 195.961 370.517C195.961 371.583 196.163 372.384 196.568 372.92C196.972 373.457 197.578 373.725 198.387 373.725C199.129 373.725 199.85 373.306 200.548 372.468C201.18 371.697 201.54 370.932 201.628 370.175C201.783 369.381 201.948 368.135 202.125 366.437C201.83 366.209 201.525 366.04 201.209 365.93C200.893 365.82 200.566 365.765 200.228 365.765ZM215.918 375.975C215.396 375.975 215.054 375.695 214.892 375.137C214.723 374.534 214.569 373.678 214.429 372.568C214.297 371.502 214.231 370.627 214.231 369.944C214.231 369.752 214.238 369.462 214.253 369.072C214.275 368.683 214.286 368.393 214.286 368.201C214.286 366.82 213.94 366.129 213.249 366.129C212.316 366.129 211.482 366.551 210.747 367.397C210.372 367.83 209.857 368.657 209.203 369.877C209.203 372.678 209.085 374.335 208.85 374.85C208.644 375.306 208.325 375.534 207.891 375.534C207.59 375.534 207.325 375.431 207.097 375.225C206.869 375.019 206.755 374.769 206.755 374.475C206.755 374.372 206.788 374.21 206.855 373.99C206.913 373.806 206.954 373.27 206.976 372.38L207.009 370.748L207.042 362.644C207.093 361.733 207.119 361.119 207.119 360.803C207.119 360.428 207.082 360.075 207.009 359.745C206.943 359.407 206.91 359.057 206.91 358.697C206.91 358.389 207.016 358.135 207.229 357.936C207.443 357.731 207.704 357.628 208.012 357.628C208.615 357.628 208.968 357.951 209.071 358.598C209.188 359.311 209.247 359.954 209.247 360.528C209.247 361.299 209.221 362.104 209.17 362.942C209.126 363.743 209.107 364.548 209.115 365.357L209.126 366.327C209.729 365.519 210.372 364.916 211.055 364.519C211.746 364.115 212.478 363.912 213.249 363.912C214.47 363.912 215.308 364.309 215.763 365.103C216.087 365.662 216.271 366.603 216.315 367.926L216.403 370.032L216.623 372.325C216.726 373.185 216.851 373.942 216.998 374.596C217.028 374.721 217.042 374.828 217.042 374.916C217.042 375.218 216.932 375.467 216.712 375.666C216.491 375.872 216.226 375.975 215.918 375.975ZM227.12 365.897C226.966 365.897 226.782 365.89 226.569 365.875C226.363 365.86 226.183 365.853 226.028 365.853C225.859 365.853 225.359 365.908 224.529 366.018L224.738 372.535L224.749 373.02L224.76 373.582C224.79 375.192 224.404 375.997 223.603 375.997C223.309 375.997 223.051 375.901 222.831 375.71C222.618 375.519 222.511 375.28 222.511 374.993C222.511 374.714 222.522 374.295 222.544 373.736C222.566 373.178 222.577 372.759 222.577 372.479L222.357 366.04C221.82 366.018 221.004 365.956 219.909 365.853C219.255 365.765 218.928 365.401 218.928 364.761C218.928 364.438 219.027 364.17 219.225 363.957C219.424 363.743 219.678 363.637 219.986 363.637L222.302 363.824C222.302 363.449 222.283 362.95 222.247 362.325C222.217 361.693 222.202 361.237 222.202 360.958C222.202 360.649 222.309 360.395 222.522 360.197C222.735 359.991 222.996 359.888 223.305 359.888C223.967 359.888 224.352 360.428 224.463 361.509C224.485 361.781 224.496 362.108 224.496 362.49L224.474 363.13L224.463 363.813C225.374 363.696 225.896 363.637 226.028 363.637C226.793 363.637 227.293 363.674 227.528 363.747C227.976 363.894 228.2 364.24 228.2 364.783C228.2 365.107 228.098 365.375 227.892 365.588C227.693 365.794 227.436 365.897 227.12 365.897ZM244.519 365.897C244.364 365.897 244.18 365.89 243.967 365.875C243.761 365.86 243.581 365.853 243.427 365.853C243.258 365.853 242.758 365.908 241.927 366.018L242.137 372.535L242.148 373.02L242.159 373.582C242.188 375.192 241.803 375.997 241.001 375.997C240.707 375.997 240.45 375.901 240.23 375.71C240.016 375.519 239.91 375.28 239.91 374.993C239.91 374.714 239.921 374.295 239.943 373.736C239.965 373.178 239.976 372.759 239.976 372.479L239.755 366.04C239.219 366.018 238.403 365.956 237.308 365.853C236.653 365.765 236.326 365.401 236.326 364.761C236.326 364.438 236.426 364.17 236.624 363.957C236.823 363.743 237.076 363.637 237.385 363.637L239.7 363.824C239.7 363.449 239.682 362.95 239.645 362.325C239.616 361.693 239.601 361.237 239.601 360.958C239.601 360.649 239.708 360.395 239.921 360.197C240.134 359.991 240.395 359.888 240.704 359.888C241.365 359.888 241.751 360.428 241.861 361.509C241.883 361.781 241.894 362.108 241.894 362.49L241.872 363.13L241.861 363.813C242.773 363.696 243.295 363.637 243.427 363.637C244.191 363.637 244.691 363.674 244.926 363.747C245.375 363.894 245.599 364.24 245.599 364.783C245.599 365.107 245.496 365.375 245.29 365.588C245.092 365.794 244.835 365.897 244.519 365.897ZM257.022 375.975C256.5 375.975 256.158 375.695 255.996 375.137C255.827 374.534 255.673 373.678 255.533 372.568C255.401 371.502 255.335 370.627 255.335 369.944C255.335 369.752 255.342 369.462 255.357 369.072C255.379 368.683 255.39 368.393 255.39 368.201C255.39 366.82 255.044 366.129 254.354 366.129C253.42 366.129 252.586 366.551 251.851 367.397C251.476 367.83 250.961 368.657 250.307 369.877C250.307 372.678 250.189 374.335 249.954 374.85C249.748 375.306 249.429 375.534 248.995 375.534C248.694 375.534 248.429 375.431 248.201 375.225C247.973 375.019 247.859 374.769 247.859 374.475C247.859 374.372 247.892 374.21 247.959 373.99C248.017 373.806 248.058 373.27 248.08 372.38L248.113 370.748L248.146 362.644C248.197 361.733 248.223 361.119 248.223 360.803C248.223 360.428 248.186 360.075 248.113 359.745C248.047 359.407 248.014 359.057 248.014 358.697C248.014 358.389 248.12 358.135 248.333 357.936C248.547 357.731 248.808 357.628 249.116 357.628C249.719 357.628 250.072 357.951 250.175 358.598C250.292 359.311 250.351 359.954 250.351 360.528C250.351 361.299 250.325 362.104 250.274 362.942C250.23 363.743 250.212 364.548 250.219 365.357L250.23 366.327C250.833 365.519 251.476 364.916 252.159 364.519C252.85 364.115 253.582 363.912 254.354 363.912C255.574 363.912 256.412 364.309 256.867 365.103C257.191 365.662 257.375 366.603 257.419 367.926L257.507 370.032L257.727 372.325C257.83 373.185 257.955 373.942 258.102 374.596C258.132 374.721 258.146 374.828 258.146 374.916C258.146 375.218 258.036 375.467 257.816 375.666C257.595 375.872 257.33 375.975 257.022 375.975ZM262.954 361.332C262.601 361.332 262.296 361.207 262.038 360.958C261.781 360.708 261.653 360.406 261.653 360.053C261.653 359.701 261.781 359.399 262.038 359.149C262.296 358.899 262.601 358.774 262.954 358.774C263.306 358.774 263.608 358.899 263.858 359.149C264.115 359.399 264.244 359.701 264.244 360.053C264.244 360.406 264.115 360.708 263.858 360.958C263.608 361.207 263.306 361.332 262.954 361.332ZM263.45 370.285C263.45 370.726 263.461 371.388 263.483 372.27C263.512 373.145 263.527 373.803 263.527 374.244C263.527 374.567 263.428 374.832 263.229 375.037C263.031 375.243 262.77 375.346 262.446 375.346C262.13 375.346 261.869 375.243 261.664 375.037C261.465 374.832 261.366 374.567 261.366 374.244C261.366 373.803 261.351 373.145 261.322 372.27C261.3 371.388 261.289 370.726 261.289 370.285C261.289 369.594 261.325 368.734 261.399 367.705C261.472 366.669 261.509 365.805 261.509 365.114C261.509 364.783 261.608 364.515 261.807 364.309C262.013 364.104 262.274 364.001 262.59 364.001C262.906 364.001 263.163 364.104 263.362 364.309C263.567 364.515 263.67 364.783 263.67 365.114C263.67 365.805 263.634 366.669 263.56 367.705C263.487 368.734 263.45 369.594 263.45 370.285ZM274.619 366.801C274.215 366.801 273.932 366.665 273.77 366.393C273.66 366.202 273.564 365.805 273.483 365.202C272.932 365.342 272.083 365.599 270.936 365.974C269.753 366.445 269.157 367.025 269.15 367.716C269.371 367.797 269.587 367.856 269.801 367.893C271.491 368.194 272.748 368.609 273.571 369.139C274.77 369.91 275.369 371.028 275.369 372.49C275.369 373.689 274.85 374.593 273.814 375.203C272.954 375.703 271.866 375.953 270.55 375.953C269.587 375.953 268.669 375.791 267.794 375.467C266.662 375.056 266.096 374.482 266.096 373.747C266.096 373.453 266.21 373.196 266.438 372.976C266.673 372.755 266.938 372.645 267.232 372.645C267.459 372.645 267.753 372.821 268.114 373.174C268.29 373.343 268.687 373.483 269.304 373.593C269.797 373.681 270.212 373.725 270.55 373.725C271.168 373.725 271.712 373.652 272.182 373.505C272.866 373.292 273.208 372.954 273.208 372.49C273.208 371.491 272.509 370.815 271.113 370.462L269.966 370.208C268.988 369.995 268.294 369.745 267.882 369.458C267.287 369.047 266.989 368.426 266.989 367.595C266.989 366.059 267.713 364.964 269.161 364.309C269.602 364.111 270.308 363.876 271.278 363.604C272.248 363.324 272.943 363.089 273.362 362.898C273.663 362.766 273.99 362.7 274.343 362.7C274.659 362.7 274.917 362.803 275.115 363.008C275.321 363.214 275.424 363.482 275.424 363.813C275.424 364.026 275.468 364.339 275.556 364.75C275.652 365.162 275.699 365.474 275.699 365.688C275.699 366.018 275.596 366.287 275.391 366.492C275.192 366.698 274.935 366.801 274.619 366.801ZM298.931 376.206C298.328 376.206 297.975 375.886 297.872 375.247C297.74 374.438 297.608 373.299 297.475 371.829L297.1 368.411C297.027 367.904 296.902 367.408 296.726 366.922C296.476 366.261 296.204 365.93 295.91 365.93C295.638 365.93 295.13 366.162 294.388 366.625C293.682 367.051 293.219 367.393 292.999 367.65C292.991 368.341 293.01 369.032 293.054 369.723L293.385 372.667C293.524 373.828 293.594 374.788 293.594 375.545C293.594 375.868 293.491 376.133 293.285 376.338C293.087 376.552 292.83 376.658 292.514 376.658C292.198 376.658 291.937 376.552 291.731 376.338C291.532 376.133 291.433 375.868 291.433 375.545C291.433 374.655 291.341 373.343 291.158 371.608C290.981 369.866 290.893 368.551 290.893 367.661C290.893 366.882 290.783 366.276 290.562 365.842C290.048 366.077 289.526 366.459 288.996 366.989L287.695 368.444C287.578 368.62 287.39 368.852 287.133 369.139C287.133 369.58 287.093 370.23 287.012 371.09C286.931 371.95 286.891 372.586 286.891 372.998C286.891 373.218 286.924 373.527 286.99 373.924C287.063 374.321 287.1 374.607 287.1 374.784C287.1 375.085 286.986 375.339 286.758 375.545C286.538 375.75 286.277 375.853 285.975 375.853C285.145 375.853 284.729 374.909 284.729 373.02C284.729 372.579 284.77 371.921 284.851 371.046C284.932 370.171 284.972 369.514 284.972 369.072C284.972 368.683 284.935 368.099 284.862 367.319C284.796 366.54 284.763 365.952 284.763 365.555C284.763 363.887 285.137 363.052 285.887 363.052C286.174 363.052 286.435 363.177 286.67 363.427C286.913 363.677 287.034 363.949 287.034 364.243C287.034 364.383 287.015 364.6 286.979 364.894C286.942 365.188 286.924 365.412 286.924 365.566L286.946 366.724C287.328 365.937 287.89 365.228 288.633 364.596C289.375 363.957 290.007 363.637 290.529 363.637C291.683 363.637 292.477 364.21 292.911 365.357C293.315 364.82 293.796 364.42 294.355 364.155C294.914 363.883 295.553 363.747 296.273 363.747C297.501 363.747 298.339 364.409 298.787 365.732C298.876 365.996 299.026 367.029 299.239 368.83C299.445 370.094 299.71 372.2 300.033 375.148C300.055 375.442 299.956 375.692 299.736 375.897C299.515 376.103 299.247 376.206 298.931 376.206ZM304.587 361.332C304.234 361.332 303.929 361.207 303.672 360.958C303.414 360.708 303.286 360.406 303.286 360.053C303.286 359.701 303.414 359.399 303.672 359.149C303.929 358.899 304.234 358.774 304.587 358.774C304.94 358.774 305.241 358.899 305.491 359.149C305.748 359.399 305.877 359.701 305.877 360.053C305.877 360.406 305.748 360.708 305.491 360.958C305.241 361.207 304.94 361.332 304.587 361.332ZM305.083 370.285C305.083 370.726 305.094 371.388 305.116 372.27C305.146 373.145 305.16 373.803 305.16 374.244C305.16 374.567 305.061 374.832 304.863 375.037C304.664 375.243 304.403 375.346 304.08 375.346C303.764 375.346 303.503 375.243 303.297 375.037C303.098 374.832 302.999 374.567 302.999 374.244C302.999 373.803 302.984 373.145 302.955 372.27C302.933 371.388 302.922 370.726 302.922 370.285C302.922 369.594 302.959 368.734 303.032 367.705C303.106 366.669 303.142 365.805 303.142 365.114C303.142 364.783 303.242 364.515 303.44 364.309C303.646 364.104 303.907 364.001 304.223 364.001C304.539 364.001 304.796 364.104 304.995 364.309C305.201 364.515 305.304 364.783 305.304 365.114C305.304 365.805 305.267 366.669 305.193 367.705C305.12 368.734 305.083 369.594 305.083 370.285ZM317.884 370.539L317.63 374.244C317.586 375.714 317.436 376.915 317.178 377.849C316.848 379.04 316.318 379.918 315.591 380.484C314.709 381.168 313.433 381.51 311.765 381.51C310.787 381.51 309.967 381.443 309.306 381.311C308.38 381.127 307.917 380.745 307.917 380.164C307.917 379.51 308.236 379.183 308.876 379.183C309.14 379.183 309.582 379.246 310.199 379.371C310.816 379.503 311.5 379.562 312.25 379.547C313.661 379.525 314.635 378.841 315.172 377.496C315.524 376.599 315.712 375.221 315.734 373.362C315.337 374.097 314.863 374.648 314.312 375.015C313.768 375.383 313.143 375.567 312.437 375.567C311.107 375.567 310.023 375.115 309.185 374.21C308.354 373.299 307.939 372.119 307.939 370.671C307.939 368.687 308.508 367.088 309.648 365.875C310.824 364.625 312.426 364.001 314.455 364.001C315.139 364.001 315.712 364.089 316.175 364.265C316.638 364.442 316.991 364.706 317.233 365.059C318.02 365.081 318.413 365.519 318.413 366.371C318.413 366.893 318.336 367.591 318.182 368.466C318.013 369.48 317.913 370.171 317.884 370.539ZM314.345 365.765C312.948 365.765 311.868 366.246 311.103 367.209C310.419 368.076 310.078 369.179 310.078 370.517C310.078 371.583 310.28 372.384 310.684 372.92C311.088 373.457 311.695 373.725 312.503 373.725C313.246 373.725 313.966 373.306 314.664 372.468C315.297 371.697 315.657 370.932 315.745 370.175C315.899 369.381 316.065 368.135 316.241 366.437C315.947 366.209 315.642 366.04 315.326 365.93C315.01 365.82 314.683 365.765 314.345 365.765ZM330.034 375.975C329.512 375.975 329.171 375.695 329.009 375.137C328.84 374.534 328.685 373.678 328.546 372.568C328.414 371.502 328.347 370.627 328.347 369.944C328.347 369.752 328.355 369.462 328.369 369.072C328.391 368.683 328.403 368.393 328.403 368.201C328.403 366.82 328.057 366.129 327.366 366.129C326.433 366.129 325.598 366.551 324.863 367.397C324.488 367.83 323.974 368.657 323.32 369.877C323.32 372.678 323.202 374.335 322.967 374.85C322.761 375.306 322.441 375.534 322.008 375.534C321.706 375.534 321.442 375.431 321.214 375.225C320.986 375.019 320.872 374.769 320.872 374.475C320.872 374.372 320.905 374.21 320.971 373.99C321.03 373.806 321.07 373.27 321.092 372.38L321.126 370.748L321.159 362.644C321.21 361.733 321.236 361.119 321.236 360.803C321.236 360.428 321.199 360.075 321.126 359.745C321.059 359.407 321.026 359.057 321.026 358.697C321.026 358.389 321.133 358.135 321.346 357.936C321.559 357.731 321.82 357.628 322.129 357.628C322.732 357.628 323.084 357.951 323.187 358.598C323.305 359.311 323.364 359.954 323.364 360.528C323.364 361.299 323.338 362.104 323.287 362.942C323.242 363.743 323.224 364.548 323.231 365.357L323.242 366.327C323.845 365.519 324.488 364.916 325.172 364.519C325.863 364.115 326.594 363.912 327.366 363.912C328.586 363.912 329.424 364.309 329.88 365.103C330.203 365.662 330.387 366.603 330.431 367.926L330.519 370.032L330.74 372.325C330.843 373.185 330.968 373.942 331.115 374.596C331.144 374.721 331.159 374.828 331.159 374.916C331.159 375.218 331.049 375.467 330.828 375.666C330.608 375.872 330.343 375.975 330.034 375.975ZM341.236 365.897C341.082 365.897 340.898 365.89 340.685 365.875C340.479 365.86 340.299 365.853 340.145 365.853C339.976 365.853 339.476 365.908 338.645 366.018L338.855 372.535L338.866 373.02L338.877 373.582C338.906 375.192 338.52 375.997 337.719 375.997C337.425 375.997 337.168 375.901 336.947 375.71C336.734 375.519 336.628 375.28 336.628 374.993C336.628 374.714 336.639 374.295 336.661 373.736C336.683 373.178 336.694 372.759 336.694 372.479L336.473 366.04C335.937 366.018 335.121 365.956 334.026 365.853C333.371 365.765 333.044 365.401 333.044 364.761C333.044 364.438 333.144 364.17 333.342 363.957C333.541 363.743 333.794 363.637 334.103 363.637L336.418 363.824C336.418 363.449 336.4 362.95 336.363 362.325C336.334 361.693 336.319 361.237 336.319 360.958C336.319 360.649 336.426 360.395 336.639 360.197C336.852 359.991 337.113 359.888 337.422 359.888C338.083 359.888 338.469 360.428 338.579 361.509C338.601 361.781 338.612 362.108 338.612 362.49L338.59 363.13L338.579 363.813C339.491 363.696 340.013 363.637 340.145 363.637C340.909 363.637 341.409 363.674 341.644 363.747C342.093 363.894 342.317 364.24 342.317 364.783C342.317 365.107 342.214 365.375 342.008 365.588C341.81 365.794 341.553 365.897 341.236 365.897ZM356.408 375.754C355.283 375.754 354.262 375.534 353.343 375.093C353.108 375.445 352.821 375.622 352.483 375.622C352.203 375.622 351.965 375.523 351.766 375.324C351.575 375.133 351.479 374.89 351.479 374.596C351.479 374.405 351.487 374.122 351.501 373.747C351.524 373.373 351.535 373.09 351.535 372.898C351.535 372.119 351.512 370.954 351.468 369.403C351.432 367.845 351.413 366.676 351.413 365.897C351.413 365.36 351.417 364.346 351.424 362.854C351.432 361.354 351.435 360.333 351.435 359.789C351.435 359.348 351.527 358.951 351.711 358.598C351.954 358.15 352.288 357.925 352.714 357.925C353.266 357.925 353.541 358.245 353.541 358.885C353.541 358.988 353.523 359.138 353.486 359.337C353.449 359.535 353.431 359.686 353.431 359.789L353.398 362.203L353.376 365.015C354.015 364.581 354.622 364.258 355.195 364.045C355.776 363.824 356.32 363.714 356.827 363.714C358.407 363.714 359.69 364.32 360.675 365.533C361.601 366.673 362.064 368.073 362.064 369.734C362.064 371.41 361.524 372.832 360.443 374.001C359.363 375.17 358.018 375.754 356.408 375.754ZM356.827 365.798C356.224 365.798 355.607 365.967 354.975 366.305C354.666 366.474 354.137 366.838 353.387 367.397L353.365 369.304L353.376 371.024L353.387 372.832C353.74 372.994 354.236 373.2 354.875 373.45C355.331 373.589 355.842 373.659 356.408 373.659C357.474 373.659 358.348 373.284 359.032 372.535C359.716 371.785 360.057 370.851 360.057 369.734C360.057 368.639 359.782 367.724 359.231 366.989C358.635 366.195 357.834 365.798 356.827 365.798ZM369.815 375.798C368.154 375.798 366.809 375.383 365.78 374.552C364.655 373.633 364.093 372.347 364.093 370.693C364.093 368.782 364.556 367.18 365.482 365.886C366.489 364.475 367.834 363.769 369.518 363.769C370.738 363.769 371.734 363.975 372.505 364.387C373.454 364.894 373.928 365.673 373.928 366.724C373.928 367.459 373.513 368.128 372.682 368.731C372.314 368.995 371.535 369.407 370.344 369.966L366.133 371.961C366.544 372.571 367.055 373.031 367.665 373.339C368.283 373.648 368.999 373.803 369.815 373.803C370.322 373.803 370.918 373.707 371.601 373.516C372.469 373.273 373.027 372.957 373.277 372.568C373.527 372.171 373.796 371.972 374.082 371.972C374.339 371.972 374.567 372.071 374.766 372.27C374.972 372.461 375.075 372.685 375.075 372.943C375.075 373.758 374.417 374.46 373.101 375.048C371.976 375.548 370.881 375.798 369.815 375.798ZM369.518 365.754C368.621 365.754 367.875 366.103 367.279 366.801C366.684 367.492 366.239 368.536 365.945 369.932L369.33 368.323C370.661 367.676 371.609 367.114 372.175 366.636C371.543 366.048 370.657 365.754 369.518 365.754Z"
    fill="#8A8A8A" />
  <path
    d="M391.161 365.897C391.007 365.897 390.823 365.89 390.61 365.875C390.404 365.86 390.224 365.853 390.07 365.853C389.901 365.853 389.401 365.908 388.57 366.018L388.78 372.535L388.791 373.02L388.802 373.582C388.831 375.192 388.445 375.997 387.644 375.997C387.35 375.997 387.093 375.901 386.872 375.71C386.659 375.519 386.552 375.28 386.552 374.993C386.552 374.714 386.563 374.295 386.585 373.736C386.607 373.178 386.619 372.759 386.619 372.479L386.398 366.04C385.861 366.018 385.046 365.956 383.95 365.853C383.296 365.765 382.969 365.401 382.969 364.761C382.969 364.438 383.068 364.17 383.267 363.957C383.465 363.743 383.719 363.637 384.027 363.637L386.343 363.824C386.343 363.449 386.324 362.95 386.288 362.325C386.258 361.693 386.244 361.237 386.244 360.958C386.244 360.649 386.35 360.395 386.563 360.197C386.777 359.991 387.037 359.888 387.346 359.888C388.008 359.888 388.394 360.428 388.504 361.509C388.526 361.781 388.537 362.108 388.537 362.49L388.515 363.13L388.504 363.813C389.415 363.696 389.937 363.637 390.07 363.637C390.834 363.637 391.334 363.674 391.569 363.747C392.017 363.894 392.242 364.24 392.242 364.783C392.242 365.107 392.139 365.375 391.933 365.588C391.734 365.794 391.477 365.897 391.161 365.897ZM403.014 367.143C402.962 368.062 402.595 368.521 401.911 368.521C401.279 368.521 400.963 368.157 400.963 367.43C400.963 367.29 400.952 367.033 400.93 366.658L400.897 365.732C399.735 365.871 398.806 366.198 398.107 366.713C397.453 367.191 396.909 367.911 396.476 368.874L396.498 374.916C396.498 375.659 396.134 376.03 395.406 376.03C394.759 376.03 394.436 375.659 394.436 374.916V367.176C394.436 366.933 394.443 366.57 394.458 366.085C394.48 365.599 394.491 365.236 394.491 364.993C394.491 364.251 394.814 363.879 395.461 363.879C396.182 363.879 396.545 364.489 396.553 365.71C397.964 364.35 399.53 363.67 401.25 363.67C401.845 363.67 402.29 363.894 402.584 364.342C402.878 364.791 403.025 365.467 403.025 366.371C403.025 366.753 403.021 367.011 403.014 367.143ZM414.282 368.852C414.282 369.381 414.286 370.175 414.293 371.234C414.3 372.292 414.304 373.086 414.304 373.615C414.304 373.777 414.315 374.023 414.337 374.354C414.367 374.685 414.381 374.931 414.381 375.093C414.381 375.409 414.275 375.666 414.062 375.864C413.848 376.07 413.587 376.173 413.279 376.173C412.713 376.173 412.353 375.824 412.198 375.126C411.279 375.603 410.221 375.842 409.023 375.842C408.06 375.842 407.262 375.629 406.63 375.203C405.932 374.732 405.517 374.045 405.384 373.141C405.098 371.193 404.954 369.458 404.954 367.937C404.954 366.93 405.065 365.783 405.285 364.497C405.388 363.857 405.737 363.538 406.333 363.538C406.649 363.538 406.913 363.64 407.126 363.846C407.34 364.045 407.446 364.302 407.446 364.618C407.446 364.956 407.391 365.496 407.281 366.239C407.178 366.981 407.126 367.547 407.126 367.937C407.126 369.164 407.167 370.215 407.248 371.09C407.329 371.965 407.45 372.667 407.612 373.196C407.854 373.328 408.093 373.431 408.328 373.505C408.563 373.571 408.795 373.604 409.023 373.604C410.008 373.604 411.048 373.446 412.143 373.13L412.132 370.892L412.11 368.753C412.11 367.165 412.18 365.787 412.32 364.618C412.4 363.942 412.757 363.604 413.389 363.604C413.705 363.604 413.97 363.707 414.183 363.912C414.396 364.118 414.495 364.376 414.481 364.684L414.282 368.852ZM422.188 375.798C420.526 375.798 419.181 375.383 418.152 374.552C417.028 373.633 416.465 372.347 416.465 370.693C416.465 368.782 416.928 367.18 417.854 365.886C418.861 364.475 420.207 363.769 421.89 363.769C423.11 363.769 424.106 363.975 424.878 364.387C425.826 364.894 426.3 365.673 426.3 366.724C426.3 367.459 425.885 368.128 425.054 368.731C424.687 368.995 423.908 369.407 422.717 369.966L418.505 371.961C418.917 372.571 419.427 373.031 420.038 373.339C420.655 373.648 421.372 373.803 422.188 373.803C422.695 373.803 423.29 373.707 423.974 373.516C424.841 373.273 425.4 372.957 425.65 372.568C425.9 372.171 426.168 371.972 426.455 371.972C426.712 371.972 426.94 372.071 427.138 372.27C427.344 372.461 427.447 372.685 427.447 372.943C427.447 373.758 426.789 374.46 425.473 375.048C424.349 375.548 423.253 375.798 422.188 375.798ZM421.89 365.754C420.993 365.754 420.247 366.103 419.652 366.801C419.056 367.492 418.612 368.536 418.318 369.932L421.702 368.323C423.033 367.676 423.981 367.114 424.547 366.636C423.915 366.048 423.029 365.754 421.89 365.754Z"
    fill="#97C236" />
  <defs>
    <filter id="filter0_i_6039_2323" x="92.9287" y="168.613" width="335" height="65.0322" filterUnits="userSpaceOnUse"
      color-interpolation-filters="sRGB">
      <feFlood flood-opacity="0" result="BackgroundImageFix" />
      <feBlend mode="normal" in="SourceGraphic" in2="BackgroundImageFix" result="shape" />
      <feColorMatrix in="SourceAlpha" type="matrix" values="0 0 0 0 0 0 0 0 0 0 0 0 0 0 0 0 0 0 127 0"
        result="hardAlpha" />
      <feOffset dy="-6.45164" />
      <feComposite in2="hardAlpha" operator="arithmetic" k2="-1" k3="1" />
      <feColorMatrix type="matrix" values="0 0 0 0 0.461877 0 0 0 0 0.595117 0 0 0 0 0.161313 0 0 0 1 0" />
      <feBlend mode="normal" in2="shape" result="effect1_innerShadow_6039_2323" />
    </filter>
    <filter id="filter1_i_6039_2323" x="92.9287" y="246.549" width="335" height="65.0322" filterUnits="userSpaceOnUse"
      color-interpolation-filters="sRGB">
      <feFlood flood-opacity="0" result="BackgroundImageFix" />
      <feBlend mode="normal" in="SourceGraphic" in2="BackgroundImageFix" result="shape" />
      <feColorMatrix in="SourceAlpha" type="matrix" values="0 0 0 0 0 0 0 0 0 0 0 0 0 0 0 0 0 0 127 0"
        result="hardAlpha" />
      <feOffset dy="-6.45164" />
      <feComposite in2="hardAlpha" operator="arithmetic" k2="-1" k3="1" />
      <feColorMatrix type="matrix" values="0 0 0 0 0.595117 0 0 0 0 0.161313 0 0 0 0 0.161313 0 0 0 1 0" />
      <feBlend mode="normal" in2="shape" result="effect1_innerShadow_6039_2323" />
    </filter>
  </defs>
</svg>