<svg width="24" height="24" viewBox="0 0 24 24" fill="none" xmlns="http://www.w3.org/2000/svg">
  <path fill-rule="evenodd" clip-rule="evenodd"
    d="M6.11612 6.11612C6.60427 5.62796 7.39573 5.62796 7.88388 6.11612L12 10.2322L16.1161 6.11612C16.6043 5.62796 17.3957 5.62796 17.8839 6.11612C18.372 6.60427 18.372 7.39573 17.8839 7.88388L13.7678 12L17.8839 16.1161C18.372 16.6043 18.372 17.3957 17.8839 17.8839C17.3957 18.372 16.6043 18.372 16.1161 17.8839L12 13.7678L7.88388 17.8839C7.39573 18.372 6.60427 18.372 6.11612 17.8839C5.62796 17.3957 5.62796 16.6043 6.11612 16.1161L10.2322 12L6.11612 7.88388C5.62796 7.39573 5.62796 6.60427 6.11612 6.11612Z"
    fill="#FFC70F" stroke="black" stroke-width="0.8" stroke-linecap="round" stroke-linejoin="round" />
</svg>