<svg width="24" height="24" viewBox="0 0 24 24" fill="none" xmlns="http://www.w3.org/2000/svg">
  <path fill-rule="evenodd" clip-rule="evenodd"
    d="M8.82431 10.6868C9.50098 10.8596 9.99657 11.3526 10.2533 12.1093C10.3933 12.5222 10.3933 13.1018 10.2533 13.5151C10.0101 14.2303 9.57972 14.6983 8.95685 14.924C8.49626 15.0911 8.06672 15.0596 7.58032 14.8234C6.2261 14.1668 5.98247 12.1508 7.13198 11.112C7.60525 10.6842 8.21413 10.5311 8.82431 10.6868ZM16.119 10.6846C16.4365 10.766 16.5988 10.8487 16.8678 11.0674C17.5497 11.6211 17.8039 12.6263 17.572 13.4635C17.4277 13.9844 17.045 14.5089 16.6338 14.7499C16.1562 15.0298 15.5735 15.123 15.0504 14.9091C14.1961 14.5601 13.7054 13.7264 13.7049 12.8284C13.7049 12.349 13.7565 12.1294 13.9713 11.6964C14.1331 11.3705 14.5338 10.9685 14.8452 10.8198C15.2621 10.6212 15.6916 10.5757 16.119 10.6846Z"
    fill="white" />
  <path fill-rule="evenodd" clip-rule="evenodd"
    d="M8.54675 3.7578C7.07531 4.06529 5.60737 4.52326 4.61751 4.98429C4.55321 5.01403 4.50553 5.03503 4.46267 5.06259C4.3227 5.15138 4.22909 5.31191 3.75975 6.08044C3.12988 7.11228 2.46065 8.49581 2.12822 9.45286C2.07748 9.60026 2.00487 9.80147 1.96681 9.90033C1.86184 10.175 1.51803 11.4369 1.42793 11.8796C1.35882 12.2186 1.2897 12.6503 1.14755 13.6275C1.07188 14.1463 1.04038 15.0447 1.06269 16.0468C1.09025 17.2952 1.10774 17.4981 1.19654 17.5659C1.33432 17.6709 2.0298 18.1376 2.33817 18.3314C3.54805 19.0925 4.84759 19.6965 6.36102 20.2017C6.51849 20.2542 6.66065 20.2971 6.67683 20.2971C6.7735 20.2971 7.54115 19.1502 7.57921 19.0933L7.58271 19.0881L8.39803 17.8524C8.66398 17.9268 8.9273 17.9959 9.16875 18.0545C10.6826 18.4215 12.6667 18.4657 14.3424 18.17C14.8028 18.0835 15.2592 17.9775 15.7106 17.8524L16.6336 19.0912L17.5718 20.2971C17.5718 20.2971 17.5718 20.3295 17.9353 20.2017C18.6942 19.8746 21.0873 18.7277 21.6279 18.3852C21.9875 18.1573 22.7398 17.6508 22.8303 17.576C22.9165 17.5042 22.9209 17.4854 22.9589 16.9951C23.0346 16.0206 22.9992 14.2919 22.8881 13.5619C22.8547 13.3386 22.8219 13.1152 22.7897 12.8918C22.746 12.5967 22.697 12.3024 22.6427 12.0091C22.5578 11.5612 22.1856 10.1733 22.0684 9.86752C22.0303 9.76867 21.9581 9.57008 21.9083 9.42574C21.4997 8.25261 20.7054 6.69193 19.8595 5.39939C19.7829 5.2826 19.7352 5.20693 19.674 5.14569C19.5546 5.02672 19.3827 4.96023 18.8447 4.74328C17.8745 4.35223 16.8781 4.05523 15.652 3.79104C15.481 3.7543 15.289 3.71624 15.2264 3.70618C15.1931 3.70098 15.159 3.70648 15.1289 3.72188C15.0989 3.73728 15.0746 3.7618 15.0593 3.79191L14.9084 4.08891C14.8089 4.28362 14.7137 4.48051 14.6228 4.67942L14.5966 4.73978C14.5804 4.77702 14.5525 4.80797 14.5171 4.82794C14.4818 4.84791 14.4408 4.85581 14.4006 4.85044C12.9685 4.65886 11.2569 4.64661 9.90972 4.81851C9.69626 4.84607 9.51867 4.864 9.51605 4.85832C9.51255 4.85307 9.37958 4.58756 9.21993 4.26825C9.06027 3.94894 8.91374 3.68912 8.89362 3.69043C8.87394 3.69175 8.71778 3.72193 8.54675 3.7578ZM10.2535 12.1071C9.99633 11.3503 9.50118 10.8578 8.82451 10.6846C8.21476 10.5289 7.60545 10.682 7.13174 11.1098C5.98266 12.149 6.2263 14.1646 7.58096 14.8216C8.06735 15.0578 8.49645 15.0889 8.95704 14.9222C9.57991 14.6961 10.0108 14.2281 10.2535 13.5129C10.3935 13.0995 10.3935 12.52 10.2535 12.1071ZM16.8676 11.0651C16.5986 10.8464 16.4363 10.7638 16.1187 10.6829C15.6914 10.5735 15.2619 10.6194 14.8454 10.818C14.5336 10.9667 14.1325 11.3683 13.9706 11.6941C13.7563 12.1272 13.7047 12.3468 13.7051 12.8262C13.7051 13.7246 14.1963 14.5583 15.0501 14.9073C15.5733 15.1212 16.1559 15.0276 16.6336 14.7481C17.0447 14.5076 17.4275 13.9827 17.5718 13.4617C17.8036 12.6241 17.5499 11.6189 16.8676 11.0651Z"
    fill="#FFC70F" />
  <path
    d="M7.83577 17.6869C8.10171 17.7612 8.92842 17.997 9.16987 18.0552C10.6833 18.4226 12.6674 18.4663 14.3431 18.1706C14.8035 18.0843 15.26 17.9783 15.7113 17.8531L16.6342 19.0918L17.5725 20.2982C17.5725 20.2982 17.5725 20.3301 17.936 20.2024C18.6949 19.8752 21.0884 18.7283 21.6286 18.3863C21.9886 18.158 22.7405 17.6514 22.8315 17.5771C22.9176 17.5049 22.9216 17.4861 22.9596 16.9958C23.0357 16.0212 22.9999 14.2926 22.8888 13.563C22.8713 13.4457 22.8266 13.1444 22.7903 12.8924C22.7466 12.5973 22.6976 12.3031 22.6434 12.0097C22.5585 11.5623 22.1863 10.1739 22.0691 9.86818C22.031 9.76933 21.9593 9.57074 21.909 9.42683C21.5503 8.39455 20.892 7.06264 20.1628 5.87683C19.8873 5.42979 19.8772 5.33181 19.7797 5.87683C19.3173 8.46322 18.5103 10.4727 17.5252 12.0355C17.6818 12.496 17.6982 12.9926 17.5725 13.4624C17.4281 13.9833 17.0459 14.5078 16.6342 14.7488C16.1566 15.0283 15.5744 15.1219 15.0508 14.908L15.0276 14.8984C12.4548 17.0216 9.07364 17.2709 7.83577 17.4069C7.24352 17.4717 6.90278 17.4664 7.83577 17.6869Z"
    fill="#F59F00" />
  <path
    d="M7.58078 19.0927C7.58078 19.0927 6.77595 20.299 6.67666 20.299C6.66047 20.299 6.51832 20.2557 6.36085 20.2033C4.84742 19.6985 3.54831 19.0944 2.33756 18.3329C2.02963 18.1396 1.33415 17.6728 1.19593 17.5674C1.10757 17.5001 1.09007 17.2971 1.06252 16.0487C1.04065 15.0462 1.0717 14.1478 1.14737 13.629C1.28953 12.6518 1.35864 12.2205 1.42775 11.8816C1.51786 11.4389 1.86166 10.177 1.96664 9.90184C2.0047 9.80299 2.07731 9.60178 2.12848 9.45481C2.46091 8.49776 3.13015 7.1138 3.76002 6.08239C4.37414 5.07547 4.34527 5.11265 4.61734 4.98581C5.60719 4.52521 7.07514 4.06725 8.54658 3.75975C8.71717 3.72388 8.87376 3.6937 8.89345 3.69239C8.91313 3.69108 9.0601 3.9509 9.21975 4.27021L9.51544 4.86027C9.5185 4.86552 9.69609 4.84758 9.90955 4.82047C11.2568 4.64856 12.9683 4.66081 14.4004 4.8524C14.4407 4.85776 14.4816 4.84986 14.5169 4.82989C14.5523 4.80992 14.5802 4.77897 14.5964 4.74173L14.6226 4.68093C14.6681 4.57639 14.7967 4.31088 14.9083 4.09043L15.0592 3.79387C15.0744 3.76375 15.0987 3.73924 15.1288 3.72383C15.1588 3.70843 15.1929 3.70294 15.2262 3.70814C15.2892 3.7182 15.4808 3.75625 15.6518 3.79299C16.8779 4.05675 17.8739 4.35375 18.8445 4.74523C19.6589 5.07329 19.634 5.05754 19.8593 5.40134C20.7057 6.69345 21.4996 8.25456 21.9081 9.42769C21.958 9.57204 22.0301 9.77018 22.0678 9.86948C22.1854 10.1752 22.5577 11.5631 22.6425 12.0106C22.6867 12.2446 22.7527 12.6418 22.7895 12.8937C22.8258 13.1452 22.87 13.447 22.8879 13.5638C22.999 14.2934 23.0344 16.0221 22.9588 16.9966C22.9207 17.4869 22.9163 17.5058 22.8302 17.5775C22.7396 17.6527 21.9873 18.1592 21.6273 18.3867C21.0875 18.7296 18.694 19.8761 17.9351 20.2033C17.8514 20.2411 17.7652 20.2731 17.6771 20.299C17.6075 20.3174 17.5467 20.2671 17.5025 20.2103L16.6334 19.0927M6.5415 17.2219C6.99728 17.4533 8.24652 17.8325 9.16858 18.056C10.6824 18.4234 12.6665 18.4672 14.3422 18.1715C15.2521 18.011 16.8744 17.5582 17.5716 17.2219M8.8239 10.6866C9.50101 10.8593 9.99615 11.3523 10.2529 12.109C10.3929 12.5219 10.3929 13.1015 10.2529 13.5148C10.0102 14.23 9.5793 14.698 8.95643 14.9233C8.49584 15.0908 8.06674 15.0593 7.58035 14.8236C6.22569 14.1666 5.98205 12.151 7.13156 11.1117C7.60484 10.6839 8.21371 10.5308 8.8239 10.6866ZM16.1181 10.6844C16.4357 10.7657 16.598 10.8484 16.867 11.0671C17.5493 11.6209 17.803 12.626 17.5712 13.4632C17.4269 13.9842 17.0441 14.5086 16.633 14.7496C16.1553 15.0296 15.5727 15.1228 15.0495 14.9089C14.1957 14.5598 13.7045 13.7261 13.7045 12.8281C13.7041 12.3487 13.7557 12.1291 13.9704 11.6961C14.1323 11.3702 14.533 10.9682 14.8448 10.8195C15.2612 10.6209 15.6908 10.5755 16.1181 10.6844Z"
    stroke="black" stroke-width="0.874818" stroke-linecap="round" />
</svg>