<svg width="24" height="24" viewBox="0 0 24 24" fill="none" xmlns="http://www.w3.org/2000/svg">
  <path
    d="M16.7001 20C16.3282 20 15.967 19.8758 15.6737 19.6472L12.3432 17.0671L10.1102 19.5323C10.0119 19.6406 9.88665 19.7209 9.74717 19.765C9.60768 19.8091 9.459 19.8154 9.3163 19.7832C9.1736 19.751 9.042 19.6815 8.93495 19.5818C8.82789 19.4821 8.74922 19.3558 8.70696 19.2158L7.03758 13.6936L4.04097 12.6523C3.71741 12.5397 3.43579 12.3312 3.23355 12.0547C3.03132 11.7781 2.91806 11.4466 2.90882 11.1041C2.89958 10.7616 2.9948 10.4244 3.18183 10.1373C3.36886 9.85029 3.63883 9.62696 3.95585 9.49705L18.7653 3.51788C19.0479 3.40297 19.3563 3.36679 19.6578 3.4132C19.9593 3.45961 20.2426 3.58686 20.4775 3.78143C20.7124 3.976 20.8902 4.23061 20.992 4.51817C21.0937 4.80573 21.1156 5.1155 21.0554 5.41452L18.3587 18.6497C18.2789 19.0308 18.0705 19.373 17.7683 19.6187C17.4662 19.8644 17.0887 19.9988 16.6993 19.9992L16.7001 20Z"
    fill="#FFC70F" stroke="black" stroke-width="0.87" />
  <path
    d="M9.49794 19.8036C9.32061 19.8036 9.14798 19.7466 9.00556 19.6409C8.86314 19.5352 8.75848 19.3866 8.70706 19.2169L6.91537 13.2997C6.85952 13.1154 6.86984 12.9174 6.94454 12.7399C7.01925 12.5625 7.15363 12.4167 7.32445 12.3278L16.0573 7.78083C16.2324 7.68913 16.4345 7.66324 16.6271 7.70784C16.8197 7.75244 16.9899 7.86459 17.1069 8.02394C17.2238 8.18329 17.2798 8.37929 17.2646 8.57637C17.2495 8.77345 17.1641 8.95857 17.0242 9.09815L11.1698 14.9517L10.307 19.1433C10.2701 19.3233 10.1742 19.4859 10.0346 19.6053C9.89497 19.7247 9.71951 19.7942 9.53596 19.8028L9.49794 19.8036Z"
    fill="#F59F00" stroke="black" stroke-width="0.87" />
</svg>